<?xml version="1.0" encoding="utf-8"?>
<!-- Generator: Adobe Illustrator 24.3.0, SVG Export Plug-In . SVG Version: 6.00 Build 0)  -->
<svg version="1.1" id="OBJECTS" xmlns="http://www.w3.org/2000/svg" xmlns:xlink="http://www.w3.org/1999/xlink" x="0px" y="0px"
	 viewBox="0 0 358.8 309.9" style="enable-background:new 0 0 358.8 309.9;" xml:space="preserve">
<style type="text/css">
	.st0{enable-background:new    ;}
	.st1{fill:#4F8AC4;}
	.st2{fill:#28739F;}
	.st3{fill:#5C8BAB;}
	.st4{fill:#FBD15B;}
	.st5{fill:#EFBC3F;}
	.st6{fill:#FCDD92;}
	.st7{fill:#A5B7C6;}
	.st8{fill:#BFCED8;}
	.st9{fill:#112B46;}
	.st10{fill:#878CF0;}
	.st11{fill:#8FA6B5;}
	.st12{fill:#516193;}
	.st13{fill:#BEE1F4;}
	.st14{fill:#56548C;}
	.st15{fill:#EC827D;}
	.st16{fill:#2C2264;}
	.st17{fill:#4D338B;}
	.st18{fill:#FFFFFF;}
	.st19{fill:#FF82B1;}
	.st20{fill:#FA9887;}
	.st21{fill:#487596;}
	.st22{fill:#3D5E7C;}
	.st23{fill:#0F3247;}
	.st24{fill:#606BF1;}
	.st25{fill-rule:evenodd;clip-rule:evenodd;fill:#112B46;}
	.st26{fill-rule:evenodd;clip-rule:evenodd;fill:#56548C;}
	.st27{fill-rule:evenodd;clip-rule:evenodd;fill:#FFC8AF;}
	.st28{fill-rule:evenodd;clip-rule:evenodd;fill:#20318D;}
	.st29{fill-rule:evenodd;clip-rule:evenodd;fill:#2C2264;}
	.st30{fill-rule:evenodd;clip-rule:evenodd;fill:#5C8BAB;}
	.st31{fill:#6F6FA5;}
	.st32{fill:#CECCFF;}
	.st33{fill-rule:evenodd;clip-rule:evenodd;fill:#FFFFFF;}
	.st34{fill-rule:evenodd;clip-rule:evenodd;fill:#F4AE92;}
	.st35{fill-rule:evenodd;clip-rule:evenodd;fill:#E8F2F9;}
	.st36{fill:#FFC8AF;}
	.st37{fill-rule:evenodd;clip-rule:evenodd;fill:#606BF1;}
	.st38{fill-rule:evenodd;clip-rule:evenodd;fill:#2B3BBD;}
	.st39{fill-rule:evenodd;clip-rule:evenodd;fill:#CECCFF;}
	.st40{fill-rule:evenodd;clip-rule:evenodd;fill:#FF8E00;}
	.st41{fill-rule:evenodd;clip-rule:evenodd;fill:#FBD15B;}
	.st42{fill-rule:evenodd;clip-rule:evenodd;fill:#878CF0;}
	.st43{fill:#46467F;}
	.st44{fill-rule:evenodd;clip-rule:evenodd;fill:#28739F;}
	.st45{fill-rule:evenodd;clip-rule:evenodd;fill:#4F8AC4;}
	.st46{fill:#66669E;}
</style>
<g>
	<g id="XMLID_1340_">
		<g class="st0">
			<g id="XMLID_1345_">
				<polygon id="XMLID_1346_" class="st1" points="232.8,86.9 232.7,137.9 173.5,172.3 173.6,121.3 				"/>
			</g>
			<g id="XMLID_1343_">
				<polygon id="XMLID_1344_" class="st2" points="173.6,121.3 173.5,172.3 85.1,121.3 85.2,70.2 				"/>
			</g>
			<g id="XMLID_1341_">
				<polygon id="XMLID_1342_" class="st3" points="232.8,86.9 173.6,121.3 85.2,70.2 144.4,35.8 				"/>
			</g>
		</g>
	</g>
	<g id="XMLID_1333_">
		<g class="st0">
			<g id="XMLID_1338_">
				<polygon id="XMLID_1339_" class="st4" points="123.1,158.1 123,184.9 63.8,219.3 63.9,192.5 				"/>
			</g>
			<g id="XMLID_1336_">
				<polygon id="XMLID_1337_" class="st5" points="63.9,192.5 63.8,219.3 0,182.4 0.1,155.7 				"/>
			</g>
			<g id="XMLID_1334_">
				<polygon id="XMLID_1335_" class="st6" points="123.1,158.1 63.9,192.5 0.1,155.7 59.3,121.3 				"/>
			</g>
		</g>
	</g>
	<g id="XMLID_33_">
		<g id="XMLID_34_">
			<path id="XMLID_1332_" class="st7" d="M206.5,75.3l-1.8,1.1c0.3-0.2,0.5-0.6,0.5-1.2l1.8-1.1C207,74.7,206.8,75.1,206.5,75.3z"/>
			<g id="XMLID_1326_">
				<polygon id="XMLID_1330_" class="st7" points="205.3,33.4 207.1,32.3 207,74.1 205.2,75.2 				"/>
				<path class="st8" d="M205.3,29.1L155.3,0.3c-0.5-0.3-1-0.3-1.3-0.1l-1.8,1.1c0.3-0.2,0.8-0.2,1.3,0.1l49.9,28.8
					c1,0.6,1.9,2,1.9,3.2l1.8-1.1C207.1,31.1,206.3,29.7,205.3,29.1z"/>
				<path id="XMLID_1327_" class="st9" d="M203.4,30.2c1,0.6,1.9,2,1.9,3.2l-0.1,41.8c0,1.2-0.8,1.7-1.9,1.1l-49.9-28.8
					c-1-0.6-1.9-2-1.9-3.2l0.1-41.8c0-1.2,0.8-1.6,1.9-1.1L203.4,30.2z"/>
				<polygon class="st10" points="153.5,5.5 153.4,43.2 203.3,72 203.4,34.4 				"/>
			</g>
			<g id="XMLID_39_">
				<g id="XMLID_1318_">
					<path id="XMLID_1324_" class="st7" d="M204.1,77.3l0,2.1c0,0.4-0.2,0.8-0.8,1.1l0-2.1C203.8,78.1,204.1,77.7,204.1,77.3z"/>
					<path id="XMLID_1323_" class="st7" d="M167.5,99.1l0,2.1c-1,0.6-2.7,0.6-3.7,0l0-2.1C164.9,99.7,166.5,99.7,167.5,99.1z"/>
					<path id="XMLID_1322_" class="st11" d="M113.1,71.4l0-2.1c0,0.4,0.3,0.8,0.8,1.1l0,2.1C113.4,72.2,113.1,71.8,113.1,71.4z"/>
					<polygon id="XMLID_1321_" class="st7" points="203.3,78.4 203.3,80.5 167.5,101.3 167.5,99.1 					"/>
					<polygon id="XMLID_1320_" class="st11" points="163.8,99.1 163.8,101.3 113.9,72.4 113.9,70.3 					"/>
					<path id="XMLID_1319_" class="st8" d="M203.3,76.2c1,0.6,1,1.6,0,2.1l-35.8,20.8c-1,0.6-2.7,0.6-3.7,0l-49.9-28.8
						c-1-0.6-1-1.6,0-2.1l35.8-20.8c1-0.6,2.7-0.6,3.7,0L203.3,76.2z"/>
				</g>
				<g id="XMLID_1315_">
					<g class="st0">
						<g id="XMLID_1316_">
							<path id="XMLID_1317_" class="st7" d="M162.8,81.7L144.4,71c-0.5-0.3-1.3-0.3-1.9,0l-9.5,5.5c-0.5,0.3-0.5,0.8,0,1.1
								l18.4,10.6c0.5,0.3,1.3,0.3,1.9,0l9.5-5.5C163.3,82.4,163.3,81.9,162.8,81.7"/>
						</g>
					</g>
				</g>
				<g id="XMLID_48_">
					<g class="st0">
						<g id="XMLID_1313_">
							<polygon id="XMLID_1314_" class="st12" points="153.9,50.7 153.9,51.2 150.6,53.2 150.6,52.6 							"/>
						</g>
						<g id="XMLID_1311_">
							<polygon id="XMLID_1312_" class="st12" points="150.6,52.6 150.6,53.2 147.2,51.2 147.2,50.7 							"/>
						</g>
						<g id="XMLID_1309_">
							<polygon id="XMLID_1310_" class="st9" points="153.9,50.7 150.6,52.6 147.2,50.7 150.6,48.8 							"/>
						</g>
					</g>
					<g class="st0">
						<g id="XMLID_1307_">
							<polygon id="XMLID_1308_" class="st12" points="158.2,53.1 158.2,53.7 154.8,55.6 154.8,55.1 							"/>
						</g>
						<g id="XMLID_1293_">
							<polygon id="XMLID_1306_" class="st12" points="154.8,55.1 154.8,55.6 151.5,53.7 151.5,53.2 							"/>
						</g>
						<g id="XMLID_1285_">
							<polygon id="XMLID_1291_" class="st9" points="158.2,53.1 154.8,55.1 151.5,53.2 154.9,51.2 							"/>
						</g>
					</g>
					<g class="st0">
						<g id="XMLID_581_">
							<polygon id="XMLID_712_" class="st12" points="162.4,55.6 162.4,56.1 159,58.1 159,57.5 							"/>
						</g>
						<g id="XMLID_66_">
							<polygon id="XMLID_67_" class="st12" points="159,57.5 159,58.1 155.7,56.2 155.7,55.6 							"/>
						</g>
						<g id="XMLID_68_">
							<polygon id="XMLID_69_" class="st9" points="162.4,55.6 159,57.5 155.7,55.6 159.1,53.7 							"/>
						</g>
					</g>
					<g class="st0">
						<g id="XMLID_70_">
							<polygon id="XMLID_71_" class="st12" points="166.6,58 166.6,58.5 163.3,60.5 163.3,60 							"/>
						</g>
						<g id="XMLID_72_">
							<polygon id="XMLID_73_" class="st12" points="163.3,60 163.3,60.5 160,58.6 160,58.1 							"/>
						</g>
						<g id="XMLID_74_">
							<polygon id="XMLID_75_" class="st9" points="166.6,58 163.3,60 160,58.1 163.3,56.1 							"/>
						</g>
					</g>
					<g class="st0">
						<g id="XMLID_76_">
							<polygon id="XMLID_77_" class="st12" points="170.9,60.5 170.9,61 167.5,63 167.5,62.4 							"/>
						</g>
						<g id="XMLID_78_">
							<polygon id="XMLID_79_" class="st12" points="167.5,62.4 167.5,63 164.2,61 164.2,60.5 							"/>
						</g>
						<g id="XMLID_80_">
							<polygon id="XMLID_81_" class="st9" points="170.9,60.5 167.5,62.4 164.2,60.5 167.6,58.5 							"/>
						</g>
					</g>
					<g class="st0">
						<g id="XMLID_82_">
							<polygon id="XMLID_83_" class="st12" points="175.1,62.9 175.1,63.5 171.8,65.4 171.8,64.9 							"/>
						</g>
						<g id="XMLID_84_">
							<polygon id="XMLID_85_" class="st12" points="171.8,64.9 171.8,65.4 168.4,63.5 168.4,63 							"/>
						</g>
						<g id="XMLID_86_">
							<polygon id="XMLID_87_" class="st9" points="175.1,62.9 171.8,64.9 168.4,63 171.8,61 							"/>
						</g>
					</g>
					<g class="st0">
						<g id="XMLID_88_">
							<polygon id="XMLID_89_" class="st12" points="179.4,65.4 179.4,65.9 176,67.8 176,67.3 							"/>
						</g>
						<g id="XMLID_90_">
							<polygon id="XMLID_91_" class="st12" points="176,67.3 176,67.8 172.7,65.9 172.7,65.4 							"/>
						</g>
						<g id="XMLID_92_">
							<polygon id="XMLID_93_" class="st9" points="179.4,65.4 176,67.3 172.7,65.4 176.1,63.5 							"/>
						</g>
					</g>
					<g class="st0">
						<g id="XMLID_94_">
							<polygon id="XMLID_95_" class="st12" points="183.6,67.8 183.6,68.3 180.2,70.3 180.2,69.8 							"/>
						</g>
						<g id="XMLID_96_">
							<polygon id="XMLID_97_" class="st12" points="180.2,69.8 180.2,70.3 176.9,68.4 176.9,67.8 							"/>
						</g>
						<g id="XMLID_98_">
							<polygon id="XMLID_99_" class="st9" points="183.6,67.8 180.2,69.8 176.9,67.8 180.3,65.9 							"/>
						</g>
					</g>
					<g class="st0">
						<g id="XMLID_100_">
							<polygon id="XMLID_101_" class="st12" points="187.8,70.3 187.8,70.8 184.5,72.7 184.5,72.2 							"/>
						</g>
						<g id="XMLID_102_">
							<polygon id="XMLID_103_" class="st12" points="184.5,72.2 184.5,72.7 181.2,70.8 181.2,70.3 							"/>
						</g>
						<g id="XMLID_104_">
							<polygon id="XMLID_105_" class="st9" points="187.8,70.3 184.5,72.2 181.2,70.3 184.5,68.3 							"/>
						</g>
					</g>
					<g class="st0">
						<g id="XMLID_106_">
							<polygon id="XMLID_107_" class="st12" points="192.1,72.7 192.1,73.2 188.7,75.2 188.7,74.7 							"/>
						</g>
						<g id="XMLID_108_">
							<polygon id="XMLID_109_" class="st12" points="188.7,74.7 188.7,75.2 185.4,73.3 185.4,72.7 							"/>
						</g>
						<g id="XMLID_110_">
							<polygon id="XMLID_111_" class="st9" points="192.1,72.7 188.7,74.7 185.4,72.7 188.8,70.8 							"/>
						</g>
					</g>
					<g class="st0">
						<g id="XMLID_112_">
							<polygon id="XMLID_153_" class="st12" points="200.6,77.6 200.6,78.1 197.2,80.1 197.2,79.6 							"/>
						</g>
						<g id="XMLID_154_">
							<polygon id="XMLID_155_" class="st12" points="197.2,79.6 197.2,80.1 189.6,75.7 189.6,75.2 							"/>
						</g>
						<g id="XMLID_156_">
							<polygon id="XMLID_157_" class="st9" points="200.6,77.6 197.2,79.6 189.6,75.2 193,73.2 							"/>
						</g>
					</g>
					<g class="st0">
						<g id="XMLID_158_">
							<polygon id="XMLID_159_" class="st12" points="153.9,55.6 153.9,56.2 150.5,58.1 150.5,57.6 							"/>
						</g>
						<g id="XMLID_160_">
							<polygon id="XMLID_161_" class="st12" points="150.5,57.6 150.5,58.1 143,53.7 143,53.2 							"/>
						</g>
						<g id="XMLID_162_">
							<polygon id="XMLID_163_" class="st9" points="153.9,55.6 150.5,57.6 143,53.2 146.3,51.2 							"/>
						</g>
					</g>
					<g class="st0">
						<g id="XMLID_164_">
							<polygon id="XMLID_165_" class="st12" points="158.1,58.1 158.1,58.6 154.8,60.5 154.8,60 							"/>
						</g>
						<g id="XMLID_166_">
							<polygon id="XMLID_167_" class="st12" points="154.8,60 154.8,60.5 151.4,58.6 151.5,58.1 							"/>
						</g>
						<g id="XMLID_168_">
							<polygon id="XMLID_187_" class="st9" points="158.1,58.1 154.8,60 151.5,58.1 154.8,56.2 							"/>
						</g>
					</g>
					<g class="st0">
						<g id="XMLID_222_">
							<polygon id="XMLID_226_" class="st12" points="162.4,60.5 162.4,61 159,63 159,62.5 							"/>
						</g>
						<g id="XMLID_237_">
							<polygon id="XMLID_238_" class="st12" points="159,62.5 159,63 155.7,61.1 155.7,60.5 							"/>
						</g>
						<g id="XMLID_239_">
							<polygon id="XMLID_240_" class="st9" points="162.4,60.5 159,62.5 155.7,60.5 159.1,58.6 							"/>
						</g>
					</g>
					<g class="st0">
						<g id="XMLID_241_">
							<polygon id="XMLID_242_" class="st12" points="166.6,63 166.6,63.5 163.2,65.4 163.2,64.9 							"/>
						</g>
						<g id="XMLID_243_">
							<polygon id="XMLID_244_" class="st12" points="163.2,64.9 163.2,65.4 159.9,63.5 159.9,63 							"/>
						</g>
						<g id="XMLID_245_">
							<polygon id="XMLID_246_" class="st9" points="166.6,63 163.2,64.9 159.9,63 163.3,61 							"/>
						</g>
					</g>
					<g class="st0">
						<g id="XMLID_247_">
							<polygon id="XMLID_248_" class="st12" points="170.8,65.4 170.8,65.9 167.5,67.9 167.5,67.3 							"/>
						</g>
						<g id="XMLID_249_">
							<polygon id="XMLID_250_" class="st12" points="167.5,67.3 167.5,67.9 164.2,66 164.2,65.4 							"/>
						</g>
						<g id="XMLID_251_">
							<polygon id="XMLID_252_" class="st9" points="170.8,65.4 167.5,67.3 164.2,65.4 167.5,63.5 							"/>
						</g>
					</g>
					<g class="st0">
						<g id="XMLID_253_">
							<polygon id="XMLID_254_" class="st12" points="175.1,67.8 175.1,68.4 171.7,70.3 171.7,69.8 							"/>
						</g>
						<g id="XMLID_255_">
							<polygon id="XMLID_256_" class="st12" points="171.7,69.8 171.7,70.3 168.4,68.4 168.4,67.9 							"/>
						</g>
						<g id="XMLID_257_">
							<polygon id="XMLID_258_" class="st9" points="175.1,67.8 171.7,69.8 168.4,67.9 171.8,65.9 							"/>
						</g>
					</g>
					<g class="st0">
						<g id="XMLID_259_">
							<polygon id="XMLID_260_" class="st12" points="179.3,70.3 179.3,70.8 175.9,72.8 175.9,72.2 							"/>
						</g>
						<g id="XMLID_261_">
							<polygon id="XMLID_262_" class="st12" points="175.9,72.2 175.9,72.8 172.6,70.9 172.6,70.3 							"/>
						</g>
						<g id="XMLID_263_">
							<polygon id="XMLID_264_" class="st9" points="179.3,70.3 175.9,72.2 172.6,70.3 176,68.4 							"/>
						</g>
					</g>
					<g class="st0">
						<g id="XMLID_265_">
							<polygon id="XMLID_266_" class="st12" points="183.6,72.7 183.6,73.3 180.2,75.2 180.2,74.7 							"/>
						</g>
						<g id="XMLID_267_">
							<polygon id="XMLID_268_" class="st12" points="180.2,74.7 180.2,75.2 176.9,73.3 176.9,72.8 							"/>
						</g>
						<g id="XMLID_269_">
							<polygon id="XMLID_270_" class="st9" points="183.6,72.7 180.2,74.7 176.9,72.8 180.2,70.8 							"/>
						</g>
					</g>
					<g class="st0">
						<g id="XMLID_271_">
							<polygon id="XMLID_272_" class="st12" points="187.8,75.2 187.8,75.7 184.4,77.7 184.4,77.1 							"/>
						</g>
						<g id="XMLID_273_">
							<polygon id="XMLID_274_" class="st12" points="184.4,77.1 184.4,77.7 181.1,75.8 181.1,75.2 							"/>
						</g>
						<g id="XMLID_275_">
							<polygon id="XMLID_276_" class="st9" points="187.8,75.2 184.4,77.1 181.1,75.2 184.5,73.3 							"/>
						</g>
					</g>
					<g class="st0">
						<g id="XMLID_277_">
							<polygon id="XMLID_278_" class="st12" points="192,77.6 192,78.2 188.7,80.1 188.7,79.6 							"/>
						</g>
						<g id="XMLID_279_">
							<polygon id="XMLID_280_" class="st12" points="188.7,79.6 188.7,80.1 185.4,78.2 185.4,77.7 							"/>
						</g>
						<g id="XMLID_281_">
							<polygon id="XMLID_282_" class="st9" points="192,77.6 188.7,79.6 185.4,77.7 188.7,75.7 							"/>
						</g>
					</g>
					<g class="st0">
						<g id="XMLID_283_">
							<polygon id="XMLID_284_" class="st12" points="196.3,80.1 196.3,80.6 192.9,82.6 192.9,82 							"/>
						</g>
						<g id="XMLID_285_">
							<polygon id="XMLID_286_" class="st12" points="192.9,82 192.9,82.6 189.6,80.7 189.6,80.1 							"/>
						</g>
						<g id="XMLID_287_">
							<polygon id="XMLID_288_" class="st9" points="196.3,80.1 192.9,82 189.6,80.1 192.9,78.2 							"/>
						</g>
					</g>
					<g class="st0">
						<g id="XMLID_289_">
							<polygon id="XMLID_290_" class="st12" points="149.6,58.1 149.6,58.6 146.2,60.6 146.2,60 							"/>
						</g>
						<g id="XMLID_291_">
							<polygon id="XMLID_292_" class="st12" points="146.2,60 146.2,60.6 138.7,56.2 138.7,55.7 							"/>
						</g>
						<g id="XMLID_293_">
							<polygon id="XMLID_294_" class="st9" points="149.6,58.1 146.2,60 138.7,55.7 142.1,53.7 							"/>
						</g>
					</g>
					<g class="st0">
						<g id="XMLID_295_">
							<polygon id="XMLID_296_" class="st12" points="153.8,60.5 153.8,61.1 150.5,63 150.5,62.5 							"/>
						</g>
						<g id="XMLID_297_">
							<polygon id="XMLID_298_" class="st12" points="150.5,62.5 150.5,63 147.2,61.1 147.2,60.6 							"/>
						</g>
						<g id="XMLID_299_">
							<polygon id="XMLID_300_" class="st9" points="153.8,60.5 150.5,62.5 147.2,60.6 150.5,58.6 							"/>
						</g>
					</g>
					<g class="st0">
						<g id="XMLID_301_">
							<polygon id="XMLID_302_" class="st12" points="158.1,63 158.1,63.5 154.7,65.5 154.7,64.9 							"/>
						</g>
						<g id="XMLID_303_">
							<polygon id="XMLID_304_" class="st12" points="154.7,64.9 154.7,65.5 151.4,63.6 151.4,63 							"/>
						</g>
						<g id="XMLID_305_">
							<polygon id="XMLID_306_" class="st9" points="158.1,63 154.7,64.9 151.4,63 154.8,61.1 							"/>
						</g>
					</g>
					<g class="st0">
						<g id="XMLID_307_">
							<polygon id="XMLID_308_" class="st12" points="162.3,65.4 162.3,66 159,67.9 159,67.4 							"/>
						</g>
						<g id="XMLID_309_">
							<polygon id="XMLID_310_" class="st12" points="159,67.4 159,67.9 155.6,66 155.6,65.5 							"/>
						</g>
						<g id="XMLID_311_">
							<polygon id="XMLID_312_" class="st9" points="162.3,65.4 159,67.4 155.6,65.5 159,63.5 							"/>
						</g>
					</g>
					<g class="st0">
						<g id="XMLID_313_">
							<polygon id="XMLID_314_" class="st12" points="166.6,67.9 166.6,68.4 163.2,70.4 163.2,69.8 							"/>
						</g>
						<g id="XMLID_315_">
							<polygon id="XMLID_316_" class="st12" points="163.2,69.8 163.2,70.4 159.9,68.5 159.9,67.9 							"/>
						</g>
						<g id="XMLID_317_">
							<polygon id="XMLID_318_" class="st9" points="166.6,67.9 163.2,69.8 159.9,67.9 163.2,66 							"/>
						</g>
					</g>
					<g class="st0">
						<g id="XMLID_64_">
							<polygon id="XMLID_65_" class="st12" points="170.8,70.3 170.8,70.9 167.4,72.8 167.4,72.3 							"/>
						</g>
						<g id="XMLID_62_">
							<polygon id="XMLID_63_" class="st12" points="167.4,72.3 167.4,72.8 164.1,70.9 164.1,70.4 							"/>
						</g>
						<g id="XMLID_60_">
							<polygon id="XMLID_61_" class="st9" points="170.8,70.3 167.4,72.3 164.1,70.4 167.5,68.4 							"/>
						</g>
					</g>
					<g class="st0">
						<g id="XMLID_58_">
							<polygon id="XMLID_59_" class="st12" points="175,72.8 175,73.3 171.7,75.3 171.7,74.7 							"/>
						</g>
						<g id="XMLID_56_">
							<polygon id="XMLID_57_" class="st12" points="171.7,74.7 171.7,75.3 168.4,73.3 168.4,72.8 							"/>
						</g>
						<g id="XMLID_54_">
							<polygon id="XMLID_55_" class="st9" points="175,72.8 171.7,74.7 168.4,72.8 171.7,70.9 							"/>
						</g>
					</g>
					<g class="st0">
						<g id="XMLID_52_">
							<polygon id="XMLID_53_" class="st12" points="179.3,75.2 179.3,75.8 175.9,77.7 175.9,77.2 							"/>
						</g>
						<g id="XMLID_49_">
							<polygon id="XMLID_50_" class="st12" points="175.9,77.2 175.9,77.7 172.6,75.8 172.6,75.3 							"/>
						</g>
						<g id="XMLID_46_">
							<polygon id="XMLID_47_" class="st9" points="179.3,75.2 175.9,77.2 172.6,75.3 176,73.3 							"/>
						</g>
					</g>
					<g class="st0">
						<g id="XMLID_44_">
							<polygon id="XMLID_45_" class="st12" points="183.5,77.7 183.5,78.2 180.2,80.2 180.2,79.6 							"/>
						</g>
						<g id="XMLID_42_">
							<polygon id="XMLID_43_" class="st12" points="180.2,79.6 180.2,80.2 176.9,78.2 176.9,77.7 							"/>
						</g>
						<g id="XMLID_40_">
							<polygon id="XMLID_41_" class="st9" points="183.5,77.7 180.2,79.6 176.9,77.7 180.2,75.8 							"/>
						</g>
					</g>
					<g class="st0">
						<g id="XMLID_37_">
							<polygon id="XMLID_38_" class="st12" points="192,82.6 192,83.1 188.6,85.1 188.6,84.5 							"/>
						</g>
						<g id="XMLID_35_">
							<polygon id="XMLID_36_" class="st12" points="188.6,84.5 188.6,85.1 181.1,80.7 181.1,80.2 							"/>
						</g>
						<g id="XMLID_347_">
							<polygon id="XMLID_348_" class="st9" points="192,82.6 188.6,84.5 181.1,80.2 184.4,78.2 							"/>
						</g>
					</g>
					<g class="st0">
						<g id="XMLID_349_">
							<polygon id="XMLID_350_" class="st12" points="149.6,63 149.6,63.6 146.2,65.5 146.2,65 							"/>
						</g>
						<g id="XMLID_351_">
							<polygon id="XMLID_352_" class="st12" points="146.2,65 146.2,65.5 134.4,58.7 134.4,58.2 							"/>
						</g>
						<g id="XMLID_353_">
							<polygon id="XMLID_354_" class="st9" points="149.6,63 146.2,65 134.4,58.2 137.8,56.2 							"/>
						</g>
					</g>
					<g class="st0">
						<g id="XMLID_355_">
							<polygon id="XMLID_356_" class="st12" points="153.8,65.5 153.8,66 150.4,68 150.4,67.4 							"/>
						</g>
						<g id="XMLID_357_">
							<polygon id="XMLID_358_" class="st12" points="150.4,67.4 150.4,68 147.1,66.1 147.1,65.5 							"/>
						</g>
						<g id="XMLID_359_">
							<polygon id="XMLID_360_" class="st9" points="153.8,65.5 150.4,67.4 147.1,65.5 150.5,63.6 							"/>
						</g>
					</g>
					<g class="st0">
						<g id="XMLID_361_">
							<polygon id="XMLID_362_" class="st12" points="158,67.9 158,68.4 154.7,70.4 154.7,69.9 							"/>
						</g>
						<g id="XMLID_363_">
							<polygon id="XMLID_364_" class="st12" points="154.7,69.9 154.7,70.4 151.4,68.5 151.4,68 							"/>
						</g>
						<g id="XMLID_365_">
							<polygon id="XMLID_366_" class="st9" points="158,67.9 154.7,69.9 151.4,68 154.7,66 							"/>
						</g>
					</g>
					<g class="st0">
						<g id="XMLID_367_">
							<polygon id="XMLID_368_" class="st12" points="162.3,70.4 162.3,70.9 158.9,72.8 158.9,72.3 							"/>
						</g>
						<g id="XMLID_369_">
							<polygon id="XMLID_370_" class="st12" points="158.9,72.3 158.9,72.8 155.6,70.9 155.6,70.4 							"/>
						</g>
						<g id="XMLID_371_">
							<polygon id="XMLID_372_" class="st9" points="162.3,70.4 158.9,72.3 155.6,70.4 159,68.5 							"/>
						</g>
					</g>
					<g class="st0">
						<g id="XMLID_373_">
							<polygon id="XMLID_374_" class="st12" points="166.5,72.8 166.5,73.3 163.2,75.3 163.2,74.8 							"/>
						</g>
						<g id="XMLID_375_">
							<polygon id="XMLID_376_" class="st12" points="163.2,74.8 163.2,75.3 159.9,73.4 159.9,72.9 							"/>
						</g>
						<g id="XMLID_377_">
							<polygon id="XMLID_378_" class="st9" points="166.5,72.8 163.2,74.8 159.9,72.9 163.2,70.9 							"/>
						</g>
					</g>
					<g class="st0">
						<g id="XMLID_379_">
							<polygon id="XMLID_380_" class="st12" points="170.8,75.3 170.8,75.8 167.4,77.8 167.4,77.2 							"/>
						</g>
						<g id="XMLID_381_">
							<polygon id="XMLID_382_" class="st12" points="167.4,77.2 167.4,77.8 164.1,75.8 164.1,75.3 							"/>
						</g>
						<g id="XMLID_383_">
							<polygon id="XMLID_384_" class="st9" points="170.8,75.3 167.4,77.2 164.1,75.3 167.4,73.3 							"/>
						</g>
					</g>
					<g class="st0">
						<g id="XMLID_385_">
							<polygon id="XMLID_386_" class="st12" points="175,77.7 175,78.2 171.6,80.2 171.6,79.7 							"/>
						</g>
						<g id="XMLID_387_">
							<polygon id="XMLID_388_" class="st12" points="171.6,79.7 171.6,80.2 168.3,78.3 168.3,77.8 							"/>
						</g>
						<g id="XMLID_389_">
							<polygon id="XMLID_390_" class="st9" points="175,77.7 171.6,79.7 168.3,77.8 171.7,75.8 							"/>
						</g>
					</g>
					<g class="st0">
						<g id="XMLID_391_">
							<polygon id="XMLID_392_" class="st12" points="179.2,80.2 179.2,80.7 175.9,82.6 175.9,82.1 							"/>
						</g>
						<g id="XMLID_393_">
							<polygon id="XMLID_394_" class="st12" points="175.9,82.1 175.9,82.6 172.6,80.7 172.6,80.2 							"/>
						</g>
						<g id="XMLID_395_">
							<polygon id="XMLID_396_" class="st9" points="179.2,80.2 175.9,82.1 172.6,80.2 175.9,78.2 							"/>
						</g>
					</g>
					<g class="st0">
						<g id="XMLID_397_">
							<polygon id="XMLID_398_" class="st12" points="187.7,85.1 187.7,85.6 184.4,87.5 184.4,87 							"/>
						</g>
						<g id="XMLID_399_">
							<polygon id="XMLID_400_" class="st12" points="184.4,87 184.4,87.5 176.8,83.2 176.8,82.6 							"/>
						</g>
						<g id="XMLID_401_">
							<polygon id="XMLID_402_" class="st9" points="187.7,85.1 184.4,87 176.8,82.6 180.2,80.7 							"/>
						</g>
					</g>
					<g class="st0">
						<g id="XMLID_403_">
							<polygon id="XMLID_404_" class="st12" points="136.8,60.6 136.8,61.2 133.4,63.1 133.4,62.6 							"/>
						</g>
						<g id="XMLID_405_">
							<polygon id="XMLID_406_" class="st12" points="133.4,62.6 133.4,63.1 130.1,61.2 130.1,60.7 							"/>
						</g>
						<g id="XMLID_407_">
							<polygon id="XMLID_408_" class="st9" points="136.8,60.6 133.4,62.6 130.1,60.7 133.5,58.7 							"/>
						</g>
					</g>
					<g class="st0">
						<g id="XMLID_409_">
							<polygon id="XMLID_410_" class="st12" points="141.1,63.1 141.1,63.6 137.7,65.6 137.7,65 							"/>
						</g>
						<g id="XMLID_411_">
							<polygon id="XMLID_412_" class="st12" points="137.7,65 137.7,65.6 134.4,63.6 134.4,63.1 							"/>
						</g>
						<g id="XMLID_413_">
							<polygon id="XMLID_414_" class="st9" points="141.1,63.1 137.7,65 134.4,63.1 137.7,61.2 							"/>
						</g>
					</g>
					<g class="st0">
						<g id="XMLID_415_">
							<polygon id="XMLID_416_" class="st12" points="145.3,65.5 145.3,66.1 141.9,68 141.9,67.5 							"/>
						</g>
						<g id="XMLID_417_">
							<polygon id="XMLID_418_" class="st12" points="141.9,67.5 141.9,68 138.6,66.1 138.6,65.6 							"/>
						</g>
						<g id="XMLID_419_">
							<polygon id="XMLID_420_" class="st9" points="145.3,65.5 141.9,67.5 138.6,65.6 142,63.6 							"/>
						</g>
					</g>
					<g class="st0">
						<g id="XMLID_421_">
							<polygon id="XMLID_422_" class="st12" points="166.5,77.8 166.5,78.3 163.1,80.2 163.1,79.7 							"/>
						</g>
						<g id="XMLID_423_">
							<polygon id="XMLID_424_" class="st12" points="163.1,79.7 163.1,80.2 142.9,68.5 142.9,68 							"/>
						</g>
						<g id="XMLID_425_">
							<polygon id="XMLID_426_" class="st9" points="166.5,77.8 163.1,79.7 142.9,68 146.2,66.1 							"/>
						</g>
					</g>
					<g class="st0">
						<g id="XMLID_427_">
							<polygon id="XMLID_428_" class="st12" points="170.7,80.2 170.7,80.7 167.4,82.7 167.4,82.2 							"/>
						</g>
						<g id="XMLID_429_">
							<polygon id="XMLID_430_" class="st12" points="167.4,82.2 167.4,82.7 164.1,80.8 164.1,80.2 							"/>
						</g>
						<g id="XMLID_431_">
							<polygon id="XMLID_432_" class="st9" points="170.7,80.2 167.4,82.2 164.1,80.2 167.4,78.3 							"/>
						</g>
					</g>
					<g class="st0">
						<g id="XMLID_433_">
							<polygon id="XMLID_434_" class="st12" points="175,82.6 175,83.2 171.6,85.1 171.6,84.6 							"/>
						</g>
						<g id="XMLID_435_">
							<polygon id="XMLID_436_" class="st12" points="171.6,84.6 171.6,85.1 168.3,83.2 168.3,82.7 							"/>
						</g>
						<g id="XMLID_437_">
							<polygon id="XMLID_438_" class="st9" points="175,82.6 171.6,84.6 168.3,82.7 171.7,80.7 							"/>
						</g>
					</g>
					<g class="st0">
						<g id="XMLID_439_">
							<polygon id="XMLID_440_" class="st12" points="183.4,87.5 183.4,88.1 180.1,90 180.1,89.5 							"/>
						</g>
						<g id="XMLID_441_">
							<polygon id="XMLID_442_" class="st12" points="180.1,89.5 180.1,90 172.5,85.7 172.5,85.1 							"/>
						</g>
						<g id="XMLID_443_">
							<polygon id="XMLID_444_" class="st9" points="183.4,87.5 180.1,89.5 172.5,85.1 175.9,83.2 							"/>
						</g>
					</g>
				</g>
			</g>
		</g>
		<g id="XMLID_51_">
			<polygon class="st13" points="159.2,41.5 197.9,63.9 197.9,36 197.9,36 159.2,13.7 			"/>
			<polygon class="st10" points="195.3,38.7 181.5,30.7 181.5,50.1 195.3,58.1 			"/>
			<g id="XMLID_445_">
				<polygon class="st10" points="163.1,21.2 178.6,30.2 178.6,29 163.1,20.1 				"/>
				<polygon class="st10" points="163.1,23.9 178.6,32.8 178.6,31.6 163.1,22.7 				"/>
				<polygon class="st10" points="163.1,26.5 178.6,35.4 178.6,34.3 163.1,25.3 				"/>
				<polygon class="st10" points="163.1,29.1 178.6,38 178.6,36.9 163.1,28 				"/>
				<polygon class="st10" points="163.1,31.7 178.6,40.7 178.6,39.5 163.1,30.6 				"/>
				<polygon class="st10" points="163.1,34.4 178.6,43.3 178.6,42.2 163.1,33.2 				"/>
				<polygon class="st10" points="163.1,39.6 173.9,45.8 173.9,44.7 163.1,38.5 				"/>
				<polygon class="st10" points="163.1,37 178.6,45.9 178.6,44.8 163.1,35.8 				"/>
			</g>
			<g>
				<polygon class="st14" points="187.2,35.8 183.1,41.6 191.3,46.3 				"/>
				<path class="st15" d="M191.9,46.9l-9.1-5.2l4.6-6.5L191.9,46.9z M183.5,41.5l7.2,4.2l-3.6-9.3L183.5,41.5z"/>
			</g>
			<g>
				<polygon class="st14" points="190.5,39.3 186.4,45.2 194.6,49.9 				"/>
				<path class="st15" d="M195.1,50.5l-9.1-5.2l4.6-6.5L195.1,50.5z M186.8,45.1l7.2,4.2l-3.6-9.3L186.8,45.1z"/>
			</g>
			<g>
				<path class="st14" d="M193.7,51.3c0,2-1.4,2.8-3.2,1.8c-1.8-1-3.2-3.5-3.2-5.5c0-2,1.4-2.8,3.2-1.8
					C192.3,46.8,193.7,49.2,193.7,51.3z"/>
				<path class="st15" d="M191.9,53.8c-0.5,0-1-0.2-1.6-0.5c-1.8-1.1-3.3-3.6-3.3-5.8c0-1.1,0.4-1.9,1.1-2.3
					c0.7-0.4,1.6-0.3,2.5,0.2c1.8,1.1,3.3,3.6,3.3,5.8c0,1.1-0.4,1.9-1.1,2.3C192.6,53.7,192.3,53.8,191.9,53.8z M189.1,45.6
					c-0.3,0-0.5,0.1-0.7,0.2c-0.5,0.3-0.8,0.9-0.8,1.8c0,1.9,1.4,4.3,3.1,5.3c0.8,0.4,1.5,0.5,2,0.2c0.5-0.3,0.8-0.9,0.8-1.8
					c0-1.9-1.4-4.3-3.1-5.3C189.9,45.7,189.5,45.6,189.1,45.6z"/>
			</g>
		</g>
	</g>
	<g id="XMLID_446_">
		<path id="XMLID_447_" class="st11" d="M43.2,166.3l-5.4-3.1c-0.7-0.4-1-1.2-1-2.3l5.4,3.1C42.2,165.1,42.5,165.9,43.2,166.3z"/>
		<g id="XMLID_448_">
			<path id="XMLID_449_" class="st8" d="M71.3,54.6l5.4,3.1c-0.7-0.4-1.6-0.3-2.6,0.2l-5.4-3.1C69.8,54.3,70.7,54.2,71.3,54.6z"/>
			<g id="XMLID_450_">
				<polygon id="XMLID_451_" class="st11" points="37.1,160.7 36.9,78.2 41.6,80.9 41.8,163.4 				"/>
				<path id="XMLID_452_" class="st8" d="M37.3,78.8l4,2.3l0.2,81.7l-4-2.3L37.3,78.8 M36.6,77.6l0.2,83.3l5.4,3.1L42,80.7
					L36.6,77.6L36.6,77.6z"/>
			</g>
			<polygon id="XMLID_455_" class="st8" points="45.6,74.5 40.2,71.4 68.8,54.9 74.2,58 			"/>
			<path id="XMLID_456_" class="st8" d="M42,80.7l-5.4-3.1c0-2.3,1.6-5.1,3.6-6.2l5.4,3.1C43.6,75.7,42,78.4,42,80.7z"/>
			<path id="XMLID_457_" class="st16" d="M74.2,58c2-1.2,3.6-0.2,3.6,2.1l0.2,83.3c0,2.3-1.6,5.1-3.6,6.2l-28.6,16.5
				c-2,1.1-3.6,0.2-3.6-2.1L42,80.7c0-2.3,1.6-5.1,3.6-6.2L74.2,58z"/>
			<polygon class="st10" points="76,68.3 43.8,86.9 43.9,152.5 76.1,133.9 			"/>
			<g id="XMLID_458_">
				<g class="st0">
					<g id="XMLID_460_">
						<path id="XMLID_461_" class="st14" d="M62.3,145.1c-2,1.1-3.6,3.9-3.6,6.2c0,2.3,1.6,3.2,3.6,2.1c2-1.1,3.6-3.9,3.6-6.2
							C66,144.8,64.3,143.9,62.3,145.1"/>
					</g>
				</g>
			</g>
			<g id="XMLID_459_">
				<g class="st0">
					<g id="XMLID_463_">
						<path id="XMLID_464_" class="st17" d="M60.4,68c-0.4,0.2-0.8,0.8-0.8,1.3c0,0.5,0.3,0.7,0.8,0.4c0.4-0.2,0.8-0.8,0.8-1.3
							C61.2,68,60.9,67.8,60.4,68"/>
						<path id="XMLID_465_" class="st17" d="M63.6,69.4l-6.4,3.7c-0.4,0.2-0.7,0.8-0.7,1.2c0,0.4,0.3,0.6,0.7,0.4l6.4-3.7
							c0.4-0.2,0.7-0.8,0.7-1.2C64.3,69.4,64,69.2,63.6,69.4"/>
					</g>
				</g>
			</g>
			<g id="XMLID_462_">
				<g class="st0">
					<g id="XMLID_467_">
						<path id="XMLID_468_" class="st18" d="M38.2,95l0.9-0.5c0.2-0.1,0.4-0.1,0.7,0.1l-0.9,0.5C38.7,94.9,38.4,94.9,38.2,95z"/>
					</g>
					<g id="XMLID_469_">
						<path id="XMLID_470_" class="st18" d="M40.5,96.8l-0.9,0.5c0.2-0.1,0.3-0.3,0.3-0.6c0-0.6-0.4-1.3-1-1.6l0.9-0.5
							c0.5,0.3,1,1,1,1.6C40.8,96.5,40.7,96.7,40.5,96.8z"/>
					</g>
					<g id="XMLID_471_">
						<path id="XMLID_472_" class="st8" d="M38.9,95.1c0.5,0.3,1,1,1,1.6c0,0.6-0.4,0.8-1,0.5c-0.5-0.3-1-1-1-1.6
							S38.4,94.8,38.9,95.1z"/>
					</g>
				</g>
				<g class="st0">
					<g id="XMLID_473_">
						<path id="XMLID_474_" class="st18" d="M38.2,99.8l0.9-0.5c0.2-0.1,0.4-0.1,0.7,0.1l-0.9,0.5C38.7,99.8,38.4,99.7,38.2,99.8z"
							/>
					</g>
					<g id="XMLID_475_">
						<path id="XMLID_476_" class="st18" d="M40.5,101.6l-0.9,0.5c0.2-0.1,0.3-0.3,0.3-0.6c0-0.6-0.4-1.3-1-1.6l0.9-0.5
							c0.5,0.3,1,1.1,1,1.6C40.8,101.3,40.7,101.5,40.5,101.6z"/>
					</g>
					<g id="XMLID_477_">
						<path id="XMLID_478_" class="st8" d="M38.9,99.9c0.5,0.3,1,1.1,1,1.6c0,0.6-0.4,0.8-1,0.6c-0.5-0.3-1-1-1-1.7
							C38,99.8,38.4,99.6,38.9,99.9z"/>
					</g>
				</g>
				<g class="st0">
					<g id="XMLID_479_">
						<path id="XMLID_480_" class="st18" d="M40.2,91.8l-0.9,0.5c0.1-0.1,0.2-0.2,0.2-0.4l0.9-0.5C40.4,91.6,40.3,91.7,40.2,91.8z"
							/>
					</g>
					<g id="XMLID_481_">
						<polygon id="XMLID_482_" class="st18" points="39.5,87.8 40.4,87.3 40.4,91.4 39.5,91.9 						"/>
					</g>
					<g id="XMLID_483_">
						<path id="XMLID_484_" class="st18" d="M38.5,86.8l0.9-0.5c0.1-0.1,0.2-0.1,0.4,0L39,86.8C38.8,86.7,38.7,86.7,38.5,86.8z"/>
					</g>
					<g id="XMLID_485_">
						<path id="XMLID_486_" class="st18" d="M39,86.8l0.9-0.5c0.3,0.2,0.6,0.6,0.6,1l-0.9,0.5C39.5,87.4,39.3,87,39,86.8z"/>
					</g>
					<g id="XMLID_487_">
						<path id="XMLID_488_" class="st8" d="M39,86.8c0.3,0.2,0.6,0.6,0.6,1l0,4.1c0,0.4-0.3,0.5-0.6,0.3c-0.3-0.2-0.6-0.6-0.6-1
							l0-4.1C38.4,86.8,38.6,86.6,39,86.8z"/>
					</g>
				</g>
			</g>
		</g>
		<g id="XMLID_466_">
			<g id="XMLID_489_">
				<polygon class="st14" points="49.7,93.2 49.7,103.6 65.3,94.7 65.3,84.2 				"/>
			</g>
			<g id="XMLID_490_">
				<path class="st4" d="M63.2,80.7c-0.5,0.3-1,1.1-1,1.7c0,0.6,0.5,0.9,1,0.6l2.9-1.7c0.6-0.3,1-1.1,1-1.7c0-0.6-0.4-0.9-1-0.6
					L63.2,80.7z"/>
			</g>
			<g id="XMLID_491_">
				<g id="XMLID_499_">
					<path id="XMLID_500_" class="st13" d="M68.2,96.3l-21.5,12.4L46.7,89l21.5-12.4L68.2,96.3z M49.7,103.6l15.6-9l0-10.5l-15.6,9
						L49.7,103.6 M67.1,79.6c0-0.6-0.4-0.9-1-0.6l-2.9,1.7c-0.5,0.3-1,1.1-1,1.7c0,0.6,0.5,0.9,1,0.6l2.9-1.7
						C66.6,81,67.1,80.2,67.1,79.6"/>
				</g>
			</g>
		</g>
		<path class="st13" d="M65.3,102.1l-10.8,6.2v0.7l10.8-6.2V102.1z M65.3,104.2l-10.8,6.2v0.7l10.8-6.2V104.2z M65.3,100l-10.8,6.2
			v0.7l10.8-6.2V100z M65.3,106.4l-10.8,6.2v0.7l10.8-6.2V106.4z M65.3,112.8l-8,4.6v0.7l8-4.6V112.8z M65.3,108.5l-10.8,6.2v0.7
			l10.8-6.2V108.5z M65.3,110.6l-10.8,6.2v0.7l10.8-6.2V110.6z"/>
	</g>
	<g id="XMLID_501_">
		<polygon id="XMLID_502_" class="st19" points="135.7,189.1 135,188.6 159.8,196.4 160.6,196.8 		"/>
		<polygon id="XMLID_503_" class="st20" points="92.9,191.6 92.1,191.2 117,199.1 117.7,199.5 		"/>
		<polygon id="XMLID_504_" class="st20" points="135.7,189.1 135,188.6 159.7,152.2 160.5,152.6 		"/>
		<polygon id="XMLID_505_" class="st1" points="135.7,189.1 160.5,152.6 160.6,196.8 		"/>
		<polygon id="XMLID_506_" class="st19" points="126.8,202.4 126,201.9 135,188.6 135.7,189.1 		"/>
		<polygon id="XMLID_507_" class="st19" points="117.7,199.5 117,199.1 126,201.9 126.8,202.4 		"/>
		<polygon id="XMLID_508_" class="st19" points="93,235.8 92.2,235.4 117,199.1 117.7,199.5 		"/>
		<polygon id="XMLID_509_" class="st2" points="135.7,189.1 160.6,196.8 93,235.8 117.7,199.5 126.8,202.4 		"/>
		<polygon id="XMLID_510_" class="st1" points="92.9,191.6 117.7,199.5 93,235.8 		"/>
		<polygon id="XMLID_511_" class="st3" points="160.5,152.6 135.7,189.1 126.8,202.4 117.7,199.5 92.9,191.6 		"/>
		<polygon id="XMLID_512_" class="st1" points="93,235.8 92.2,235.4 92.1,191.2 92.9,191.6 		"/>
		<polygon id="XMLID_513_" class="st1" points="92.9,191.6 92.1,191.2 159.7,152.2 160.5,152.6 		"/>
	</g>
	<g id="XMLID_514_">
		<g id="XMLID_1467_">
			<path class="st14" d="M195,199.1c-0.8,0-1.4-0.5-1.6-1.3L180.8,122c-0.1-0.9,0.4-1.7,1.3-1.8c0.9-0.1,1.7,0.4,1.8,1.3l12.7,75.8
				c0.1,0.9-0.4,1.7-1.3,1.8C195.2,199,195.1,199.1,195,199.1z"/>
		</g>
		<g id="XMLID_1466_">
			<path class="st14" d="M216.7,186.5c-0.8,0-1.4-0.5-1.6-1.3l-12.7-75.8c-0.1-0.9,0.4-1.7,1.3-1.8c0.9-0.1,1.7,0.4,1.8,1.3
				l12.7,75.8c0.1,0.9-0.4,1.7-1.3,1.8C216.9,186.5,216.8,186.5,216.7,186.5z"/>
		</g>
		<g id="XMLID_515_">
			<g id="XMLID_1465_">
				<path class="st14" d="M184,133.5c-0.5,0-1.1-0.3-1.4-0.8c-0.4-0.8-0.2-1.7,0.6-2.1L205,118c0.8-0.4,1.7-0.2,2.1,0.6
					c0.4,0.8,0.2,1.7-0.6,2.2l-21.7,12.5C184.6,133.4,184.3,133.5,184,133.5z"/>
			</g>
			<g id="XMLID_1464_">
				<path class="st14" d="M186.4,147.3c-0.5,0-1.1-0.3-1.4-0.8c-0.4-0.8-0.2-1.7,0.6-2.1l21.7-12.5c0.8-0.4,1.7-0.2,2.1,0.6
					c0.4,0.8,0.2,1.7-0.6,2.1l-21.7,12.5C186.9,147.2,186.6,147.3,186.4,147.3z"/>
			</g>
			<g id="XMLID_1463_">
				<path class="st14" d="M188.7,161.2c-0.5,0-1.1-0.3-1.4-0.8c-0.4-0.8-0.2-1.7,0.6-2.1l21.7-12.5c0.8-0.4,1.7-0.2,2.1,0.6
					c0.4,0.8,0.2,1.7-0.6,2.1L189.5,161C189.2,161.1,188.9,161.2,188.7,161.2z"/>
			</g>
			<g id="XMLID_1462_">
				<path class="st14" d="M191,175c-0.5,0-1.1-0.3-1.4-0.8c-0.4-0.8-0.2-1.7,0.6-2.1l21.7-12.5c0.8-0.4,1.7-0.2,2.1,0.6
					c0.4,0.8,0.2,1.7-0.6,2.1l-21.7,12.5C191.5,174.9,191.3,175,191,175z"/>
			</g>
			<g id="XMLID_1461_">
				<path class="st14" d="M193.3,188.9c-0.5,0-1.1-0.3-1.4-0.8c-0.4-0.8-0.2-1.7,0.6-2.1l21.7-12.5c0.8-0.4,1.7-0.2,2.1,0.6
					c0.4,0.8,0.2,1.7-0.6,2.1l-21.7,12.5C193.9,188.8,193.6,188.9,193.3,188.9z"/>
			</g>
		</g>
	</g>
	<g id="XMLID_518_">
		<g id="XMLID_548_">
			<g class="st0">
				<g id="XMLID_550_">
					<polygon id="XMLID_1300_" class="st21" points="306.4,204.4 332.4,189.3 332.4,193.2 306.4,208.2 					"/>
				</g>
				<g id="XMLID_551_">
					<polygon class="st22" points="275,186.2 300.9,171.1 332.4,189.3 306.4,204.4 					"/>
				</g>
				<g id="XMLID_552_">
					<polygon class="st9" points="306.4,204.4 306.4,208.2 275,190.1 275,186.2 					"/>
				</g>
			</g>
		</g>
		<g id="XMLID_549_">
			<g class="st0">
				<g id="XMLID_554_">
					<polygon class="st21" points="308.5,177.4 311.8,175.5 311.7,191.1 308.5,193 					"/>
				</g>
				<g id="XMLID_555_">
					<polygon class="st9" points="308.5,177.4 308.5,193 295.4,185.5 295.5,169.9 					"/>
				</g>
				<g id="XMLID_556_">
					<polygon class="st23" points="295.5,169.9 298.7,168 311.8,175.5 308.5,177.4 					"/>
				</g>
				<g id="XMLID_557_">
					<polygon class="st22" points="248.7,64.5 252,62.6 358.8,124.3 355.6,126.2 					"/>
				</g>
				<g id="XMLID_558_">
					<polygon class="st22" points="355.6,126.2 358.8,124.3 358.6,202.6 355.4,204.5 					"/>
				</g>
				<g id="XMLID_559_">
					<polygon class="st9" points="355.6,126.2 355.4,204.5 308.5,177.4 295.5,169.9 248.6,142.8 248.7,64.5 					"/>
					<polygon class="st10" points="253.2,134.2 253.3,72.4 351,128.8 350.8,190.6 					"/>
				</g>
			</g>
		</g>
		<g id="XMLID_553_">
			<g class="st0">
				<g id="XMLID_562_">
					<path class="st21" d="M305.5,168.6l-5.7-3.3c-1.1-0.6-1.9-0.1-1.9,1.1s0.9,2.7,1.9,3.4l5.7,3.3c1.1,0.6,1.9,0.1,1.9-1.1
						C307.4,170.8,306.5,169.3,305.5,168.6"/>
				</g>
			</g>
		</g>
		<g id="XMLID_561_">
			<g id="XMLID_563_">
				<polygon class="st4" points="302.6,123 302.6,144.2 284.1,133.5 284.2,112.3 				"/>
			</g>
			<g class="st0">
				<g id="XMLID_572_">
					<path class="st9" d="M286.8,105.2c0.4,0.2,0.6,0.7,0.6,1.1c0,0.4-0.3,0.6-0.6,0.4c-0.4-0.2-0.6-0.7-0.6-1.1
						C286.1,105.2,286.4,105,286.8,105.2z"/>
				</g>
				<g id="XMLID_573_">
					<path id="XMLID_574_" class="st13" d="M323.3,125.1c0.7,0.4,1.2,1.3,1.2,2.1l0,5.8c0-0.7-0.5-1.6-1.1-1.9l-42.5-24.5
						c-0.6-0.4-1.1-0.1-1.1,0.6l0-5.8c0-0.8,0.5-1.1,1.2-0.7L323.3,125.1z M284.2,105.2c0.4,0.2,0.6,0,0.6-0.4s-0.3-0.9-0.6-1.1
						c-0.4-0.2-0.6-0.1-0.6,0.4S283.8,105,284.2,105.2 M286.8,106.7c0.4,0.2,0.6,0,0.6-0.4s-0.3-0.9-0.6-1.1
						c-0.4-0.2-0.6-0.1-0.6,0.4C286.1,106,286.4,106.5,286.8,106.7 M281.6,103.7c0.4,0.2,0.6,0,0.6-0.4c0-0.4-0.3-0.9-0.6-1.1
						c-0.4-0.2-0.6,0-0.6,0.4C281,103,281.3,103.5,281.6,103.7"/>
				</g>
				<g id="XMLID_575_">
					<path id="XMLID_576_" class="st18" d="M323.3,131.1c0.6,0.4,1.1,1.2,1.1,1.9l-0.1,27.8c0,0.7-0.5,1-1.1,0.6l-42.5-24.5
						c-0.6-0.4-1.1-1.2-1.1-1.9l0.1-27.8c0-0.7,0.5-1,1.1-0.6L323.3,131.1z M302.6,144.2l0.1-21.2l-18.5-10.7l-0.1,21.2L302.6,144.2
						 M320.2,144.6v-0.9l-13.4-7.7v0.9L320.2,144.6 M320.3,136.7v-0.9l-13.4-7.7v0.9L320.3,136.7 M320.3,139.3v-0.8l-13.4-7.7v0.8
						L320.3,139.3 M320.3,134v-0.8l-13.4-7.7v0.8L320.3,134 M320.2,147.3v-0.8l-13.4-7.7v0.8L320.2,147.3 M320.3,142v-0.8l-13.4-7.7
						v0.8L320.3,142 M316.9,148v-0.8l-10-5.8v0.8L316.9,148"/>
				</g>
			</g>
			<g id="XMLID_571_">
				<path class="st19" d="M281.6,102.3c0.4,0.2,0.6,0.7,0.6,1.1c0,0.4-0.3,0.6-0.6,0.4c-0.4-0.2-0.6-0.7-0.6-1.1
					C281,102.2,281.3,102.1,281.6,102.3z"/>
			</g>
			<g id="XMLID_577_">
				<path class="st24" d="M284.2,103.7c0.4,0.2,0.6,0.7,0.6,1.1c0,0.4-0.3,0.6-0.6,0.4c-0.4-0.2-0.6-0.7-0.6-1.1
					S283.9,103.5,284.2,103.7z"/>
			</g>
		</g>
		<path class="st10" d="M306.9,134.3l13.4,7.7v-0.8l-13.4-7.7V134.3z M306.9,131.6l13.4,7.7v-0.8l-13.4-7.7V131.6z M306.9,125.4v0.8
			l13.4,7.7v-0.8L306.9,125.4z M306.9,128.9l13.4,7.7v-0.9l-13.4-7.7V128.9z M306.9,139.6l13.4,7.7v-0.8l-13.4-7.7V139.6z
			 M306.9,136.9l13.4,7.7v-0.9l-13.4-7.7V136.9z M306.9,142.2l10,5.8v-0.8l-10-5.8V142.2z"/>
		<g>
			<polygon class="st14" points="290.2,117.1 286.1,122.9 294.3,127.6 			"/>
			<path class="st18" d="M294.8,128.3l-9.1-5.2l4.5-6.5L294.8,128.3z M286.5,122.8l7.2,4.2l-3.6-9.3L286.5,122.8z"/>
		</g>
		<g>
			<path class="st15" d="M298.6,129.9c0,2-1.4,2.9-3.2,1.8c-1.8-1-3.2-3.5-3.2-5.5c0-2,1.4-2.8,3.2-1.8S298.6,127.9,298.6,129.9z"/>
			<path class="st18" d="M296.8,132.5c-0.5,0-1-0.2-1.6-0.5c-1.8-1.1-3.3-3.6-3.3-5.8c0-1.1,0.4-1.9,1.1-2.3s1.6-0.3,2.5,0.2
				c1.8,1.1,3.3,3.6,3.3,5.8c0,1.1-0.4,1.9-1.1,2.3C297.5,132.4,297.2,132.5,296.8,132.5z M294,124.3c-0.3,0-0.5,0.1-0.7,0.2
				c-0.5,0.3-0.8,0.9-0.8,1.8c0,1.9,1.4,4.3,3,5.3c0.8,0.4,1.5,0.5,2,0.2c0.5-0.3,0.8-0.9,0.8-1.8c0-1.9-1.4-4.3-3-5.3
				C294.8,124.4,294.4,124.3,294,124.3z"/>
		</g>
		<g>
			<path class="st24" d="M290.5,132.9c0,1.3-0.9,1.9-2.1,1.2s-2.1-2.3-2.1-3.6c0-1.3,0.9-1.9,2.1-1.2
				C289.6,130,290.5,131.6,290.5,132.9z"/>
			<path class="st18" d="M289.4,134.7c-0.3,0-0.7-0.1-1.1-0.3c-1.2-0.7-2.2-2.4-2.2-3.8c0-0.7,0.3-1.3,0.8-1.6
				c0.5-0.3,1.1-0.2,1.7,0.1c1.2,0.7,2.2,2.4,2.2,3.8c0,0.7-0.3,1.3-0.8,1.6C289.8,134.6,289.6,134.7,289.4,134.7z M287.5,129.3
				c-0.1,0-0.3,0-0.4,0.1c-0.3,0.2-0.5,0.6-0.5,1.1c0,1.2,0.9,2.7,1.9,3.4c0.5,0.3,0.9,0.3,1.2,0.1c0.3-0.2,0.5-0.6,0.5-1.1
				c0-1.2-0.9-2.7-1.9-3.4C288,129.4,287.7,129.3,287.5,129.3z"/>
		</g>
	</g>
	<g id="XMLID_725_">
		<g id="XMLID_23225_">
			<path id="XMLID_1287_" class="st25" d="M261.7,206.7v0.5c1,0.6,3.4,0.3,4,0c0.4-0.6,1.5-0.4,2.1-0.2c2.3,0.2,3.2-0.1,3.9-0.7
				c0.4-0.3,1.1-1,1-1.8C269.9,205.2,261.7,206.7,261.7,206.7z"/>
			<path id="XMLID_1290_" class="st26" d="M265.6,202.7c0,0,2.5,0.7,4,0.9c1.5,0.2,2.6,0,2.9,0.5c0.4,0.5-0.4,1.9-1.7,2.4
				c-1.3,0.5-4-0.1-5,0.1s-3.5,0.7-4.1,0.1c-0.6-0.6,0-3.6,0-3.6L265.6,202.7z"/>
			<path id="XMLID_23066_" class="st26" d="M251.6,199.4l4.5-5.1c1.8-0.5,3.7-0.6,3.5,1c-0.2,1.5-2.6,2.1-4.2,3.6l-1.5,1.3
				C252.9,201.2,251.5,200.4,251.6,199.4"/>
			<path id="XMLID_23073_" class="st27" d="M280.5,134.4c1-0.6,2.3-2,2.7-3c0.4-0.9,0.8-1.9,0.8-2.9c0-0.9-0.2-1.8-0.6-2.6
				c0-0.1-0.1-0.1-0.1-0.2c-0.2-0.2-0.5,0.1-0.6,0.3c-0.8,1.3-1.5,2.7-2.5,3.8c0.1-0.4,0.2-1,0.4-1.4c0.3-0.7-0.2-0.6-0.2-0.6
				c-0.4,0.2-1.5,2-1.6,2.7c-0.2,0.7-0.5,2.4-0.5,2.4l0.2,0.2c-0.2,0.2-0.3,0.4-0.3,0.4C278,133.6,279.9,134.8,280.5,134.4z"/>
			<path id="XMLID_23072_" class="st28" d="M252,138.5c0,0-6.2,2.3-1.4,8.7L252,138.5z"/>
			<path id="XMLID_23070_" class="st27" d="M255.9,125.9c1.3-0.2,3.2-0.3,4.5,0.1c2.2,0.6,3.4,2,3.9,4.1c0.5,2.1,0.7,5.6-0.5,7.5
				c-0.8,1.2-2.4,1-3.6,0.7c-1.4-0.4-3.3-1-4.5-1.9c-1.6-1.2-2.5-3.9-2.6-5.9C253,128.8,253.9,126.2,255.9,125.9"/>
			<path id="XMLID_23069_" class="st27" d="M255.9,136c0.2,0.2,0.4,0.4,0.6,0.5c1.2,0.9,2.3,1.4,3.7,1.8c0.2,0.1,0.5,0.1,0.7,0.2
				l-0.1,1.3c-1.5,0.4-3-0.2-4.1-0.5c-0.8-0.2-2-0.4-2-1.2L255.9,136L255.9,136z"/>
			<path id="XMLID_23068_" class="st26" d="M254.2,126.3c-1.3,0.9-1.2,2.8-1.1,4.2c0.1,2,1,4.7,2.6,5.9c0.9,0.7,1,0.8,2.2,1.1
				c0.1-0.1,0.4-0.2,0.7-0.5c0.7-0.5,1-1.4,0.8-2.2c-0.2-0.8-0.3-1.7,0.2-2c0.7-0.4,1.2,1,1.2,1c0.4-0.1,1.1-0.6,0.7-1.5
				c-0.4-0.8,0-1.7,0-1.7c1.3,0,1.9-1.7,2.3-2c0.9-0.5,1.2-0.7,1-1.5c-0.1-0.6-0.3-1.1-0.7-1.5c-0.5-0.4-2-1-2.6-1.2
				C257.8,123.7,255.1,124.3,254.2,126.3z"/>
			<path id="XMLID_23065_" class="st25" d="M253.9,200.3l1.5-1.3c1.6-1.4,4-2.1,4.2-3.6l0,0l0,0l0,0l0,0v0l0,0l0,0l0,0l0,0l0,0l0,0
				l0,0l0,0l0,0l0,0l0,0l0,0l0,0l0,0l0,0l0,0l0,0l0,0l0,0l0,0l0,0l0,0l0,0l0,0c0,0.1,0,0.3,0,0.5c-0.2,1.5-2.6,2.1-4.2,3.6l-1.5,1.3
				c-1.3,1.1-2.6,0.3-2.3-1.3C251.5,200.4,252.9,201.2,253.9,200.3"/>
			<path id="XMLID_23064_" class="st29" d="M251.6,164.2c-1.6,2.2,2.3,8.3,1.3,15.9c-0.7,5.2-2.1,13.8-1.8,18.7
				c0.1,0.9,3.6,1.5,4.5-2.8c1.6-7.3,3.6-11.9,4.3-17.6l-0.4-16.5L251.6,164.2z"/>
			<path id="XMLID_23063_" class="st29" d="M256.6,163.4c-0.4,6.9,4.5,15.3,4.2,20.8c-0.3,5.7,0.3,12.7,0.3,18.9c0,0,5,2.4,5.3-1.3
				c0.7-12.1,3.1-15.9-0.1-38.1L256.6,163.4z"/>
			<path id="XMLID_23228_" class="st30" d="M265.8,156.8c0.2-6.6-1.1-13.1-1.1-13.1c-0.6-0.9-1.3-1.6-2.2-2.2l-1.6-2
				c-2.1-0.5-4.1-1.1-6-1.8l-2.9,0.9c-2.4,1-3.2,4.1-2.1,7.2c0,0.1,2.4,7.1,2.7,9.7c0,0.2-1.8,7.1-2.2,9.9c0,0,1.7,1.6,2.2,2
				c3.5,4.4,15.1-0.9,15.6-3.3C268.3,163.2,266.9,160.4,265.8,156.8z"/>
		</g>
		<path id="XMLID_726_" class="st1" d="M261.9,148.2c-2.3,0.1-4.4-3.1-3.1-5c0.5-0.7,0.9-1.3,1.7-1.5c1.9-0.6,7.7,0.8,11.4,0.9
			c2.9-3.6,6.2-9.9,6.2-9.9c2.3,0.1,2.9,1.8,2.9,1.8c-5,12.8-6.6,12.9-6.9,13.2C273.8,148,261.9,148.2,261.9,148.2z"/>
	</g>
	<g id="XMLID_516_">
		<g id="XMLID_560_">
			<g>
				<path id="XMLID_519_" d="M307,241.8c0,0.2,0,0.4,0,0.6V241.8z"/>
				<path id="XMLID_520_" d="M307,249.6c0,0.1,0,0.3,0,0.4V249.6z"/>
				<path id="XMLID_521_" class="st14" d="M307,249.6v0.4c-0.1,1.8-1.3,3.6-3.6,4.9l-91.5,52.8c-4.9,2.8-12.8,2.8-17.7,0L130,270.8
					c-2.5-1.4-3.7-3.3-3.7-5.2v0v-7.8c0,1.8,1.2,3.7,3.7,5.1l64.2,37.1c4.9,2.8,12.8,2.8,17.7,0l91.5-52.8c2.3-1.3,3.5-3,3.6-4.8
					L307,249.6L307,249.6z"/>
				<path id="XMLID_522_" class="st31" d="M284.9,226.2l6.8,3.9h0l11.6,6.7c2.3,1.4,3.6,3.1,3.6,4.9v0.6c-0.1,1.7-1.4,3.4-3.6,4.8
					l-91.5,52.8c-4.9,2.8-12.8,2.8-17.7,0L130,262.9c-2.4-1.4-3.6-3.2-3.7-5.1c0-1.9,1.2-3.7,3.7-5.1l91.5-52.8
					c4.9-2.8,12.8-2.8,17.7,0l18.4,10.6l-6.8,4l-20.5-11.8l-88.7,51.2l68.2,39.4l88.7-51.2l-20.5-11.8v0L284.9,226.2L284.9,226.2
					L284.9,226.2L284.9,226.2z"/>
				<polygon id="XMLID_523_" class="st18" points="278.1,230.2 278.1,230.2 250.8,214.4 230.3,202.6 141.6,253.8 209.9,293.2 
					298.6,242 				"/>
			</g>
		</g>
		<g id="XMLID_517_">
			<g class="st0">
				<g id="XMLID_537_">
					<path id="XMLID_538_" class="st1" d="M278.1,213.3l0,8.8c0-0.4-0.3-0.9-0.9-1.2c-1.2-0.7-3.1-0.7-4.3,0
						c-0.6,0.3-0.9,0.8-0.9,1.2l0-8.8c0-0.4,0.3-0.9,0.9-1.2c1.2-0.7,3.1-0.7,4.3,0C277.8,212.4,278.1,212.8,278.1,213.3z"/>
				</g>
				<g id="XMLID_539_">
					<path id="XMLID_540_" class="st1" d="M286.5,216l0,8.8c0,1.5-1,3-3,4.2l0-8.8C285.5,219.1,286.5,217.5,286.5,216z"/>
				</g>
				<g id="XMLID_541_">
					<polygon id="XMLID_542_" class="st15" points="283.5,220.2 283.4,229 281,230.4 281,221.6 					"/>
				</g>
				<path id="XMLID_543_" class="st1" d="M284.3,230.3c-2.1,1.2-5.5,1.2-7.6,0l-31.1-17.9c-1.1-0.6-1.6-1.4-1.6-2.2l0,1.8
					c0,0.8,0.5,1.6,1.6,2.2l31.1,17.9c2.1,1.2,5.5,1.2,7.6,0l5.9-3.4l0-1.8L284.3,230.3z"/>
				<g id="XMLID_544_">
					<path id="XMLID_545_" class="st2" d="M281,221.6l9.1,5.3l-5.9,3.4c-2.1,1.2-5.5,1.2-7.6,0l-31.1-17.9c-2.1-1.2-2.1-3.2,0-4.4
						l5.9-3.4l9.1,5.3l2.4-1.4c4-2.3,10.5-2.3,14.6,0l5.8,3.4c4,2.3,4.1,6.1,0,8.4L281,221.6z M272.9,214.5c1.2,0.7,3.1,0.7,4.3,0
						c1.2-0.7,1.2-1.8,0-2.5c-1.2-0.7-3.1-0.7-4.3,0C271.7,212.7,271.7,213.8,272.9,214.5"/>
				</g>
			</g>
		</g>
	</g>
	<g id="XMLID_524_">
		<g>
			<path class="st32" d="M266,241.2l-33.9-19.6l-1.8,1.1l33.9,19.6L266,241.2z M211.6,221.4l-1.8,1.1l54.8,31.6l1.8-1.1L211.6,221.4
				z M199.8,228.3l54.8,31.6l1.8-1.1l-54.8-31.6L199.8,228.3z M189.8,234.1l54.8,31.6l1.8-1.1l-54.8-31.6L189.8,234.1z M179.7,240
				l54.8,31.6l1.8-1.1l-54.8-31.6L179.7,240z M169.7,245.8l35,20.2l1.8-1.1l-35-20.2L169.7,245.8z"/>
		</g>
	</g>
	<g id="XMLID_1419_">
		<path id="XMLID_1459_" class="st14" d="M223.1,106.6c0.1-0.4,0.2-0.8,0.4-1.2c0.1-0.1,0.1-0.2,0.2-0.3c0.4-0.3,1.6,0.1,1.9,0.3
			c1.6,0.7,2.5,2.5,3.4,3.9c1,1.3,1.9,2.8,3.1,4c1.6,1.7-0.3,2.3-2.6,2.3c-1.6-0.1-2.6-1.3-3.8-2.2c-0.9-0.7-2.3-0.8-3-1.8
			c-0.5-0.7-0.4-1.7-0.2-2.6C222.8,108.1,222.9,107.3,223.1,106.6z"/>
		<path id="XMLID_1458_" class="st14" d="M212.6,114.6c0.1-0.4,0.2-0.8,0.4-1.2c0.1-0.1,0.1-0.2,0.2-0.3c0.4-0.3,1.6,0.1,2,0.3
			c1.6,0.7,2.5,2.6,3.5,3.9c1,1.4,2,2.8,3.1,4.1c1.6,1.7-0.3,2.4-2.7,2.3c-1.6-0.1-2.7-1.3-3.9-2.3c-0.9-0.7-2.4-0.9-3.1-1.9
			c-0.5-0.7-0.4-1.7-0.2-2.6C212.3,116.2,212.4,115.4,212.6,114.6z"/>
		<path id="XMLID_1454_" class="st9" d="M197.6,84.1c0,0,15.9,7.4,18.3,11.3c2.4,3.9,2.1,19.8,2.1,19.8c-3.7,1.6-5.7,0-5.7,0
			c-2-10.4-2.6-14.8-2.6-14.8C197.9,94.9,194.1,93.6,197.6,84.1z"/>
		<path id="XMLID_1424_" class="st9" d="M207.2,82.6c0,0,14.3,3.1,18,5.5c3.7,2.4,2.6,18.4,2.6,18.4c-2.8,1.5-5.1,0-5.1,0
			c-1-7.9-2.2-11.6-2.2-11.6s-12.6-2.8-16.3-4.7C198.2,87.3,205.4,82.2,207.2,82.6z"/>
		<path id="XMLID_1468_" class="st26" d="M210.1,59.3c1.8,0.8,1.6,13.4,1.8,14.9s7.8,11.1,7.8,11.1c-1,2.1-3.8,2.5-3.8,2.5
			c-0.4-0.5-6.5-6.8-8.8-11.2C204.8,72.2,205.5,57.1,210.1,59.3z"/>
		<path id="XMLID_1453_" class="st33" d="M208.6,58.5c-3.6-0.2-9.9,1.7-12.7,5.1s-1,7.8-0.1,11.5c0.9,3.7-0.2,10.5-0.2,11.4
			c4.2,2.8,11.7,0.2,12.9-3.9c0.5-4.6-0.4-3.8-0.4-6.5C208.3,70.3,213.4,60.2,208.6,58.5z"/>
		<path id="XMLID_1452_" class="st26" d="M205.5,59.3c1.9,8.1,0.5,15.2,0.1,18.7s1.6,11.8,1.6,11.8c2.8-1.4,3.2-3.8,3.1-5
			c-0.8-8.1-0.9-9.6-0.9-9.8c0.5-4.3,2.2-7.6,2.1-11.8s-2.9-4.6-2.9-4.6l-3.5,0L205.5,59.3z"/>
		<path id="XMLID_1450_" class="st34" d="M200.6,56c0,0,0.3,3.4-0.6,4.6c-0.1,0.8,2.3,4.3,4.6,3.7c1.4-0.3,1.2-2,1.2-2
			c-0.1-1.2,0-4.2,0-4.2L200.6,56z"/>
		<path id="XMLID_1448_" class="st26" d="M199.8,60c2.8,5.9,1.7,9.6,1.6,14.4c-0.1,4.9-2.6,18.5-2.6,18.5c-4.8-1.2-6.4-2.3-7.3-3.9
			c2.1-9.5,1.8-21.5,2.4-25.4C194.4,60.5,199.8,60,199.8,60z"/>
		<path class="st25" d="M199.3,89.6c0.3-1.7,0.7-3.9,1-6.1c-1.5-2-3-3.9-3-4.6c-0.1-1.5,1.8-14.2,0-15c-1.4-0.7-2.7,0.3-3.6,2.2
			c-0.2,3.7-0.4,9.6-1,15.6C194.4,84.9,197.7,88,199.3,89.6z"/>
		<path id="XMLID_1445_" class="st35" d="M200.4,59.3c0,0.1-0.6,0.8-0.6,0.8s1.2,2.7,1.6,3.8C201.8,65,203,66,203,66l1.6-1.7
			C202.4,63.2,200.4,59.3,200.4,59.3z"/>
		<path id="XMLID_1444_" class="st35" d="M205.6,60.1c-0.1-0.2-0.5,3.3-1,4.2c1,0.9,1.6,1.2,1.6,1.2S206.8,61.6,205.6,60.1z"/>
		<path id="XMLID_1451_" class="st27" d="M210.1,51.7c0,0-0.1,2.1-0.5,3.7c-0.5,2.6-1.5,4.7-3.1,5.4c-1.6,0.7-4.1-0.5-5.2-2
			c-1.1-1.5-1.3-4.3-0.8-6.8s2.3-5.4,5.9-4.4C210,48.6,210.1,51.7,210.1,51.7z"/>
		<path id="XMLID_1460_" class="st16" d="M210.2,53.1c0.1,1.6-5,1-6.4,0.4c-0.3,1.3-0.8,1.9-1.3,2.1c-0.5,0.1-1,2.3-1.3,3
			c-1.9-2-1.7-4.8-1.5-8.1s3.1-3.2,3.1-3.2C204.8,47.6,209.9,48.8,210.2,53.1z"/>
		<path id="XMLID_1470_" class="st16" d="M201.3,49.1c1.4-2.4,6.8-3.1,9,0.7c2.1,3.8-0.8,3.7-0.8,3.7L201.3,49.1z"/>
		<path id="XMLID_1472_" class="st36" d="M202.8,55.8c0.3-1.6,0.1-2.2-0.8-1.8s-1,2.3,0,2.6C203.1,56.8,202.8,55.8,202.8,55.8z"/>
		<g id="XMLID_1449_">
			<path id="XMLID_1441_" class="st37" d="M222.8,87.5l-9-5.2l-15.1,8.7l-1.2,0.2v0.3c0,0.1,0.1,0.2,0.2,0.3l9.1,5.3
				c0.3,0.2,0.8,0.1,1.1,0l15.1-8.7c0.2-0.1,0.3-0.3,0.3-0.4v-0.5L222.8,87.5z"/>
			<g id="XMLID_1294_">
				<path id="XMLID_1436_" class="st38" d="M223,87.8l-15.1,8.8c-0.3,0.2-0.8,0.2-1.1,0l-9.3-5.4l16.3-9.4l9.3,5.4
					C223.4,87.4,223.4,87.7,223,87.8z"/>
				<path id="XMLID_1429_" class="st39" d="M223,87.8l-15.1,8.8c-0.3,0.2-0.8,0.2-1.1,0l-9.3-5.4l16.3-9.4l9.3,5.4
					C223.4,87.4,223.4,87.7,223,87.8z"/>
				<polygon id="XMLID_1297_" class="st29" points="222.2,87.7 207.5,96.2 203.1,93.7 217.8,85.2 				"/>
				<path id="XMLID_1296_" class="st37" d="M211.7,87.4l-3.5,2c-0.2,0.1-0.5,0.1-0.7,0l-1.7-1c-0.2-0.1-0.1-0.3,0.1-0.4l3.5-2
					c0.2-0.1,0.5-0.1,0.7,0l1.7,1C211.9,87.1,211.9,87.3,211.7,87.4z"/>
			</g>
			<g id="XMLID_1304_">
				<path id="XMLID_1305_" class="st37" d="M223,87.8l-15.1,8.8l5.4-11.2c0.2-0.4,0.5-0.8,0.8-0.9l14.2-8.2c0.3-0.2,0.4,0,0.2,0.4
					L223,87.8z"/>
			</g>
		</g>
		<path id="XMLID_1299_" class="st27" d="M203.3,86.3c0,0,1.2,0.5,2.1,0.8c0.9,0.3,2,0.9,2.4,1.2c0.5,0.3,0.1,0.5-0.6,0.6
			c-0.6,0-1.6-0.3-1.6-0.3s1.5,0.7,2,0.9c0.5,0.2,1.6,1.1,1.6,1.4c0,0.3-1-0.1-1-0.1s0.5,0.3,0.6,0.6c0.1,0.3-0.3,0.5-0.8,0.3
			s-2-0.7-2-0.7s1.6,0.8,1.8,1.1s-0.4,0.5-1,0.2c-0.6-0.3-1.7-0.7-1.7-0.7s1.1,0.6,1.2,0.8c0.1,0.2-0.5,0.3-1.1,0
			c-0.6-0.3-3-1.6-3.6-2.2s-1.1-1.8-1.1-1.8L203.3,86.3z"/>
		<path id="XMLID_1456_" class="st26" d="M196.7,61.6c1.8,0.8-0.1,13.5,0,15c0.1,1.5,6.9,9.3,6.9,9.3c-1,2.1-3.8,2.5-3.8,2.5
			c-0.4-0.5-5.6-4.9-7.9-9.3C189.6,74.7,192.1,59.4,196.7,61.6z"/>
	</g>
	<g id="XMLID_1420_">
		<path id="XMLID_1491_" class="st30" d="M87.4,85.6c0,0-6.4,4.5-9,6C75.7,93,66,87.3,66,87.3s-2,0.7-1.4,2.9
			c6.8,4.6,11.9,7.2,13.9,6.7s7.7-2.8,9.7-3.9C90.2,91.9,90.3,85.3,87.4,85.6z"/>
		<g id="XMLID_1482_">
			<path id="XMLID_1490_" class="st29" d="M88.6,154.9c-0.1,1.8-0.3,3.7-0.3,3.7h-0.4c0,0,0-2.8-0.4-2.2
				C87.5,154.9,88.6,154.9,88.6,154.9z"/>
			<path id="XMLID_1489_" class="st27" d="M82.9,158.1c-0.2,0-0.5-0.2-0.7-0.5c0.4-0.5,0.8-1,1.1-1.4c0.9-1.2,2.3-3.9,2.4-5.2
				c0.1-1.2-0.7-14-0.9-15.6c-0.2-1.6-0.8-7.5-0.7-7.8c0.1-0.3,5.5,2.1,5.5,2.1c-0.1,0.5-0.8,3.6-0.5,5.5c0.3,2,0.8,3.3,0.5,6.5
				c-0.3,3.2-1.8,8.4-1.3,10.9c0,0,0,0.1,0,0.1C86.7,154.9,86.2,159.1,82.9,158.1z"/>
			<path id="XMLID_1488_" class="st29" d="M82.2,157.5c0.2,0.3,0.5,0.5,0.7,0.5c3.2,1.1,3.8-3.2,5.4-5.4c0.5,2.3,0.3,2.6-0.1,2.9
				c-0.4,0.3-1.9,2.2-2.2,3.5c-0.3,1.3-4.4,1.2-5.1,0.9C80.3,159.8,81.3,158.6,82.2,157.5z"/>
			<path id="XMLID_1487_" class="st27" d="M94.2,140.7c0.2,1.4,1,12.5,0.9,14.3c-0.1,1.1-0.6,2.9-0.9,4.3c-0.2,0.9-0.3,1.7-0.2,2
				c0.3,0.9,0.3,3.8,1.9,3.1c1.5-0.6,2.5-2.6,2.2-4.8s0.1-3.2,0-4.5c-0.1-1.3,0.8-9.3,0.9-12.2c0.1-2.9-0.8-4.2-0.9-6.1
				s0.5-5.9,0.5-5.9s-6.6-3.4-6,0.7C93,135.8,94,139.2,94.2,140.7z"/>
			<path id="XMLID_1486_" class="st29" d="M101,109.1c0.9,4.1-1.2,6.8-1.6,7.7s0.9,12.4,0.9,12.4c-3.4,4.8-15.5,1.9-17.5-1.2
				c0.3-7.1,0.9-18.7,0.9-20C83.5,106.8,101,109.1,101,109.1z"/>
			<path id="XMLID_1483_" class="st29" d="M93.6,161.4c0.1,1.9,0.6,3.6,2.1,3c1.5-0.6,2.5-2.6,2.2-4.8c-0.8,2.4-3.9,2.3-3.9-0.4
				C93.9,160.2,93.6,161,93.6,161.4z"/>
		</g>
		<path id="XMLID_1446_" class="st29" d="M89.2,70.8c-2.1,2-2.8,3.7-2.5,5.7c0.3,1.9,0.7,4.4-0.3,5.1c2.1,1.6,6.1-0.7,6-1.2
			c-0.1-0.4-2.2-6.7-2.4-6.7L89.2,70.8z"/>
		<path id="XMLID_1443_" class="st29" d="M87.4,85.5c4.4-2.1,12.1-0.9,15.1,2.2s-3.3,8.7-4.3,12s6.1,12.4,3.8,15.2
			c-4.6,2.5-18,0.8-19.2-2.9c0.1-5.5,3.5-10.3,2.7-12.5c0-1.5-2.3-6.2-1.4-8.1C85.8,87.7,85.4,86.7,87.4,85.5z"/>
		<path id="XMLID_1434_" class="st27" d="M88,73.4c0,0-0.6,2.1-0.4,3.8c0.2,1.7,0.4,5,1.8,6s3.6-0.2,5-1.4s2.9-3.4,2.9-6
			c0-2.7-1-5.9-4.8-5.7C88.7,70.3,88,73.4,88,73.4z"/>
		<path id="XMLID_1432_" class="st27" d="M94.5,81c0,0-0.2,3.4,0.5,4.7c0.1,0.8-1.9,4.4-3.9,3.8c-1.2-0.4-1-2-1-2
			c0.1-1.2,0-4.2,0-4.2L94.5,81z"/>
		<path id="XMLID_1428_" class="st29" d="M91.5,73.5c0.8,2.7,3.2,3.4,3.2,3.4c0.4,3.6-0.5,6.2-1.6,6.8c3.2,1.2,5,0.3,5.9-1.4
			s1.5-9-2-11.2C93.3,68.9,91.5,73.5,91.5,73.5z"/>
		<path id="XMLID_1427_" class="st29" d="M91.5,73.5c-1.1,1.5-3.5,1.6-3.9,1.5c0.1-5.8,5.6-6.3,7.4-4.3
			C93.5,73.6,91.5,73.5,91.5,73.5z"/>
		<path id="XMLID_1426_" class="st40" d="M101.8,87.7"/>
		<path id="XMLID_1425_" class="st33" d="M95.8,100.3c-0.2-0.1,1.1-10.4,1.1-10.4l-9.1-1.8L87.4,104l8.2,1.9L95.8,100.3z"/>
		<path id="XMLID_1422_" class="st27" d="M90.9,97.7c0,0-2.9-2.8-3.5-3.5s-0.6,0.2,0.2,1.7c-1.3,0.3-2.1,2.1-2.2,2.7
			c-0.1,0.6,1.6,2.2,2,2.4s2.4,0,2.4,0L90.9,97.7z"/>
		<path id="XMLID_1421_" class="st30" d="M101.1,87.2c-2.5,0.2-2.9,13.5-2.9,13.5s-6.8-3.1-7.2-3.1c-2.5,0.5-1.1,3.3-1.1,3.3
			c5.3,4,7.4,6.3,10,5.8s4.5-9.7,4.4-13.9C104.2,88.8,102.6,87.1,101.1,87.2z"/>
		<path id="XMLID_1492_" class="st27" d="M66.1,88c-0.2-0.1-1-1.5-1.3-1.9c-0.4-0.3-1.9-1.2-2.3-1.9c-0.4-0.7-0.5,0.9,0,1.3
			s0.8,0.7,0.8,0.7s-2.6-1.6-3.3-1.7s-1.7-0.4-1.8,0s0.3,2.5,0.7,2.9c0.4,0.5,1.3,1,2.4,1.6c1.2,0.6,3.8,0.8,3.8,0.8
			C65.8,89.4,66.2,88.8,66.1,88z"/>
	</g>
	<g id="XMLID_1512_">
		<polygon id="XMLID_1517_" class="st30" points="203.9,225.5 215.9,218.6 215.9,152.5 203.9,159.4 		"/>
		<polygon id="XMLID_1515_" class="st41" points="185,236.4 197,229.5 197,196.9 185,203.8 		"/>
		<polygon id="XMLID_1514_" class="st42" points="166.1,247.3 178.1,240.4 178.1,195.4 166.1,202.4 		"/>
	</g>
	<g id="XMLID_1493_">
		<g id="XMLID_1497_">
			<path id="XMLID_1513_" class="st36" d="M221.3,167.2c0,0-1-6.3-2.4-8.1c-1.4-1.8-0.1,3-0.3,3.4c-1.5,0.6-2.5,2.4-1.6,3.9
				c0.9,1.4,2,1.4,2,1.4L221.3,167.2z"/>
			<path id="XMLID_1502_" class="st43" d="M235.7,185.1c-9.7-3.4-11-4.3-11-4.3s-2.6-12-2.9-14.1c-2-0.6-4,1.1-4,1.1
				c1.1,9.8,1.1,14.8,2.1,16.8c0.9,2,10,6,12.5,7.1C234.9,192.7,239.3,189.6,235.7,185.1z"/>
			<path id="XMLID_1511_" class="st27" d="M226.9,173.2c-2.1,0.9-4,7.9-2.9,10.3s2.9,2.6,5.2,2s4.9-3.6,5.7-6.4
				C236.2,175.3,232.9,170.5,226.9,173.2z"/>
			<g id="XMLID_1499_">
				<g id="XMLID_1500_">
					<path id="XMLID_1510_" class="st25" d="M224.5,256.8v0.5c-1.1,0.6-3.5,0.3-4.2,0c-0.4-0.6-1.6-0.5-2.2-0.2
						c-2.4,0.2-3.4-0.1-4.2-0.8c-0.4-0.3-1.2-1.1-1.1-1.9C215.8,255.1,224.5,256.8,224.5,256.8z"/>
					<path id="XMLID_1509_" class="st26" d="M220.3,252.6c0,0-2.7,0.8-4.3,1s-2.7,0-3.1,0.5c-0.4,0.6,0.4,2,1.9,2.5
						c1.4,0.5,4.3-0.1,5.3,0.1c1.1,0.2,3.7,0.7,4.4,0.1c0.6-0.7,0-3.9,0-3.9L220.3,252.6z"/>
					<path id="XMLID_1508_" class="st26" d="M235.2,249l-4.8-5.4c-1.9-0.6-3.9-0.7-3.7,1.1c0.2,1.6,2.7,2.2,4.4,3.8l1.6,1.4
						C233.9,251,235.3,250.1,235.2,249"/>
					<path id="XMLID_1507_" class="st27" d="M230.6,181.9c-0.2,0.2-0.4,0.4-0.6,0.5c-1.2,0.9-2.4,1.5-3.9,1.9
						c-0.2,0.1-0.5,0.1-0.8,0.2l0.1,1.4c1.6,0.4,3.2-0.2,4.3-0.6c0.8-0.2,2.1-0.4,2.1-1.3L230.6,181.9L230.6,181.9z"/>
					<path id="XMLID_1506_" class="st25" d="M232.7,249.9l-1.6-1.4c-1.7-1.5-4.2-2.2-4.4-3.8l0,0l0,0l0,0l0,0v0l0,0l0,0l0,0l0,0l0,0
						l0,0l0,0l0,0l0,0l0,0l0,0l0,0l0,0l0,0l0,0l0,0l0,0l0,0l0,0l0,0l0,0l0,0l0,0l0,0c0,0.1,0,0.3,0,0.5c0.2,1.6,2.7,2.2,4.4,3.8
						l1.6,1.4c1.3,1.2,2.8,0.3,2.4-1.4C235.3,250.1,233.9,251,232.7,249.9"/>
					<path id="XMLID_1505_" class="st44" d="M235.1,211.8c1.6,2.3-2.5,8.8-1.4,16.9c0.8,5.5,2.3,14.6,1.9,19.8
						c-0.1,0.9-3.8,1.6-4.8-2.9c-1.7-7.8-3.8-12.6-4.6-18.6l0.4-17.5L235.1,211.8z"/>
					<path id="XMLID_1504_" class="st45" d="M229.8,210.9c0.5,7.3-4.8,16.1-4.4,22c0.4,6.1-0.3,13.4-0.3,19.9c0,0-5.4,2.5-5.6-1.4
						c-0.8-12.8-3.2-16.8,0.1-40.3L229.8,210.9z"/>
					<path id="XMLID_1501_" class="st26" d="M220.1,203.9c-0.2-7,1.1-13.9,1.1-13.9c0.6-0.9,1.4-1.7,2.3-2.3l1.7-2.1
						c1.2-0.3,2.4-0.6,3.6-1c1.9-0.6,4-0.6,5.9,0l0,0c2.5,1.1,3,2.8,1.9,6c0,0.1-2.2,9.1-2.5,11.9c0,0.3,1.9,7.5,2.3,10.5
						c0,0-1.8,1.7-2.4,2.1c-3.8,4.6-16-1-16.5-3.5C217.5,210.7,219,207.8,220.1,203.9z"/>
				</g>
			</g>
			<path id="XMLID_1498_" class="st25" d="M226.2,173.6c0,0-0.6,0.6-1,1.8s-0.3,2-0.3,2.6s-0.3,1-0.2,1.3c0.1,0.3,0.9-1.4,1.6-1.6
				c0.7-0.2,0.6,2-1,2.6c-0.7,1-0.1,3.6,0.2,4.1c0.4,0.6,2.7,1.3,4.7,0.6c2-0.7,3.3-2.7,4.9-5.3s0-4.5,0-4.5
				c0.8-1.8-5.3-4.1-7.9-4.2C225.8,171.1,226.2,173.6,226.2,173.6z"/>
		</g>
		<g id="XMLID_1494_">
			<g id="XMLID_1519_">
				<g id="XMLID_1496_">
					<path id="XMLID_1536_" class="st36" d="M209.4,204.8c0,0-4.5,0.1-5.1-0.7s-0.6-3.7-0.6-3.7l-0.4-1.5l0-0.1c0,0,0,0,0.1,0
						c0.2,0,0.6,0,0.8,0.3c0.2,0.2,0.4,0.6,0.5,1.1c0.1,0.2,0.1,0.3,0.2,0.4c0.1,0.1,0.1,0.3,0.1,0.3c0,0,0.1,0.1,0.3,0.2
						c0.1,0,0.2,0.1,0.4,0.1c0.6,0.2,1.3,0.4,1.8,0.5c0.2,0,0.3,0.1,0.4,0.1h0c0.1,0,0.1,0,0.1,0S209.4,204.8,209.4,204.8z"/>
				</g>
			</g>
			<g id="XMLID_1522_">
				<path id="XMLID_1529_" class="st29" d="M208.6,201.1c-0.1,0.1-0.4,0.3-0.7,0.6h0c-0.1,0-0.2-0.1-0.4-0.1l1.1-0.9l-3.2-3.5
					l-2.1,1.4l0,0c0.2,0,0.6,0,0.8,0.3c0.2,0.2,0.4,0.6,0.5,1.1l1,1c-0.1-0.1-0.3-0.1-0.4-0.1c-0.1-0.2-0.3-0.3-0.4-0.4
					c-0.8-0.8-1.5-1.6-1.5-1.6c0,0,0,0-0.1-0.1c-0.2-0.3-0.3-0.3-0.2-0.4c0.1-0.1,1.8-1.3,1.9-1.3s0.3,0,0.4,0.1
					c0.2,0.2,3.2,3.4,3.3,3.5C208.8,200.8,208.8,201,208.6,201.1z"/>
				<g id="XMLID_1520_">
					<path id="XMLID_1527_" class="st33" d="M208.5,200.8l-1.1,0.9c-0.5-0.1-1.3-0.4-1.8-0.5l-1-1l-1.3-1.4l0,0l2.1-1.4L208.5,200.8
						z"/>
				</g>
			</g>
			<path id="XMLID_1503_" class="st36" d="M210,202.8c0,0-1.2-2.1-1.3-2.3s-1.8-1-2.4-1.3s-0.3,0.9,0.5,1.4s0.9,3.5,1.9,3.7
				C209.7,204.6,210,202.8,210,202.8z"/>
		</g>
		<path id="XMLID_1495_" class="st46" d="M227.7,193.1c0.7-2.4-1.9-5.3-4.3-4.5c-0.8,0.3-1.6,0.6-2,1.3c-1.1,1.8-1.3,8.1-2.2,11.9
			c-3.8,0.9-9.6-0.1-9.6-0.1c-1.3,2-1,3.5-0.6,3.6c8.6,3.8,13.6,2.1,14,1.9C223.4,206.9,227.7,193.1,227.7,193.1z"/>
	</g>
</g>
</svg>
