<?xml version="1.0" encoding="utf-8"?>
<!-- Generator: Adobe Illustrator 24.3.0, SVG Export Plug-In . SVG Version: 6.00 Build 0)  -->
<svg version="1.1" id="OBJECTS" xmlns="http://www.w3.org/2000/svg" xmlns:xlink="http://www.w3.org/1999/xlink" x="0px" y="0px"
	 viewBox="0 0 417.7 316.5" style="enable-background:new 0 0 417.7 316.5;" xml:space="preserve">
<style type="text/css">
	.st0{opacity:0.24;fill:#D6D6FB;enable-background:new    ;}
	.st1{display:none;}
	.st2{display:inline;}
	.st3{fill:url(#SVGID_1_);}
	.st4{opacity:0.57;fill:none;stroke:#6442CE;stroke-width:1.2385;stroke-miterlimit:10;enable-background:new    ;}
	.st5{fill:url(#SVGID_2_);}
	.st6{fill:url(#SVGID_3_);}
	.st7{fill:url(#SVGID_4_);}
	.st8{display:inline;fill:url(#SVGID_5_);}
	.st9{display:inline;fill:url(#SVGID_6_);}
	.st10{display:inline;fill:url(#SVGID_7_);}
	.st11{display:inline;fill:url(#SVGID_8_);}
	.st12{display:inline;opacity:0.63;}
	.st13{fill:none;stroke:#EA8BEF;stroke-width:1.0321;stroke-linecap:round;stroke-miterlimit:10;}
	.st14{fill:url(#SVGID_9_);}
	.st15{fill:url(#SVGID_10_);}
	.st16{fill:url(#SVGID_11_);}
	.st17{fill:url(#SVGID_12_);}
	.st18{display:none;fill:url(#SVGID_13_);}
	.st19{display:none;fill:url(#SVGID_14_);}
	.st20{display:none;fill:url(#SVGID_15_);}
	.st21{display:none;fill:url(#SVGID_16_);}
	.st22{display:none;opacity:0.63;}
	.st23{display:inline;fill:none;stroke:#EA8BEF;stroke-width:1.0321;stroke-linecap:round;stroke-miterlimit:10;}
	.st24{fill:#FFFFFF;}
	.st25{fill:#595959;}
	.st26{opacity:0.57;fill:#E3DCE5;enable-background:new    ;}
	.st27{opacity:0.65;fill:#CAC2CE;enable-background:new    ;}
	.st28{fill:#E83867;}
	.st29{fill:#0C8B44;}
	.st30{opacity:0.61;fill:#E3DCE5;enable-background:new    ;}
	.st31{opacity:0.57;fill:#CAC2CE;enable-background:new    ;}
	.st32{fill:#231F20;}
	.st33{fill:url(#SVGID_17_);}
	.st34{fill:#AD7121;}
	.st35{fill:url(#SVGID_18_);stroke:#04006A;stroke-width:0.4128;stroke-miterlimit:10;}
	.st36{fill:#4F349B;}
	.st37{fill:url(#SVGID_19_);}
	.st38{fill:url(#SVGID_20_);}
	.st39{fill:url(#SVGID_21_);}
	.st40{fill:url(#SVGID_22_);}
	.st41{fill:#CED5E0;stroke:#04006A;stroke-width:0.4128;stroke-miterlimit:10;}
	.st42{fill:url(#SVGID_23_);}
	.st43{fill:url(#SVGID_24_);}
	.st44{fill:url(#SVGID_25_);}
	.st45{fill:url(#SVGID_26_);}
	.st46{fill:url(#SVGID_27_);}
	.st47{fill:none;stroke:#04006A;stroke-width:0.4128;stroke-miterlimit:10;}
	.st48{fill:url(#SVGID_28_);}
	.st49{fill:url(#SVGID_29_);}
	.st50{fill:#EBEFF7;}
	.st51{fill:url(#SVGID_30_);}
	.st52{fill:url(#SVGID_31_);}
	.st53{fill:#D8DDE5;}
	.st54{fill:#6149B7;}
	.st55{fill:#F0668F;}
	.st56{fill:url(#SVGID_32_);}
	.st57{fill:#F2F2F7;}
	.st58{fill:url(#SVGID_33_);}
	.st59{fill:url(#SVGID_34_);}
	.st60{fill:#7938E0;}
	.st61{fill:#5F3BB7;}
	.st62{fill:url(#SVGID_35_);}
	.st63{fill:#ED4C76;}
	.st64{fill:#BA2744;}
	.st65{fill:url(#SVGID_36_);}
	.st66{fill:url(#SVGID_37_);}
	.st67{fill:url(#SVGID_38_);}
	.st68{fill:url(#SVGID_39_);}
	.st69{fill:url(#SVGID_40_);}
	.st70{fill:url(#SVGID_41_);}
	.st71{fill:none;}
	.st72{fill:url(#SVGID_42_);}
	.st73{fill:url(#SVGID_43_);}
	.st74{fill:#F28941;}
	.st75{fill:url(#SVGID_44_);}
	.st76{fill:#F26893;}
	.st77{fill:url(#SVGID_45_);}
	.st78{fill:url(#SVGID_46_);}
	.st79{fill:url(#SVGID_47_);}
	.st80{fill:#A02240;}
	.st81{fill:url(#SVGID_48_);}
	.st82{fill:url(#SVGID_49_);}
	.st83{fill:url(#SVGID_50_);}
	.st84{fill:url(#SVGID_51_);}
	.st85{fill:url(#SVGID_52_);}
	.st86{fill:url(#SVGID_53_);}
	.st87{fill:url(#SVGID_54_);}
	.st88{fill:url(#SVGID_55_);}
	.st89{fill:url(#SVGID_56_);}
	.st90{fill:url(#SVGID_57_);}
	.st91{fill:url(#SVGID_58_);}
	.st92{fill:#6545BA;}
	.st93{fill:url(#SVGID_59_);}
	.st94{fill:url(#SVGID_60_);}
	.st95{fill:#804ECE;}
</style>
<g>
	<g>
		<path class="st0" d="M65.1,281.2c-11.6,0.7-33,4.3-32.1,14.2c0.9,10,13.8,7,26.1,2.8c12.3-4.2,28,5.2,30.3-1.4
			C91.8,290.3,81.1,280.3,65.1,281.2z"/>
		<path class="st0" d="M117.6,292.2c0,0-7.6,2.1,0.4,7.8s16.7-7.8,26-5.6s25,3.5,20.6-8.5C160.4,274,124.9,285,117.6,292.2z"/>
		<path class="st0" d="M377.4,284.6c-5.3-3.4-29.1,3.3-28.7,10.7c0.4,7.4,19,1.6,25,8.7C379.7,311.1,414,308.2,377.4,284.6z"/>
		<path class="st0" d="M175.1,281.5c0,0-24.3,24.1-18.8,31.6s99.7-10.7,118.1,0c18.4,10.7,41.5-5,19.2-31.8
			C271.3,254.5,175.1,281.5,175.1,281.5z"/>
		<path class="st0" d="M138.9,237.1c-24.8,17.8-66.1,41.9-109.6-13.1C-11.6,172,20.9,57.5,93.6,37c71.1-20,122.2,84.1,148.5,49.7
			C268.4,52.3,299-5.4,348.7,32.1s106,184.8,4.6,235.3C281.5,303.1,281.4,134.5,138.9,237.1z"/>
	</g>
	<g>
		<g class="st1">
			<g class="st2">
				
					<linearGradient id="SVGID_1_" gradientUnits="userSpaceOnUse" x1="98.7347" y1="163.9382" x2="169.77" y2="163.9382" gradientTransform="matrix(1 0 0 -1 0 318)">
					<stop  offset="0" style="stop-color:#8151CC"/>
					<stop  offset="1" style="stop-color:#FB4567"/>
				</linearGradient>
				<path class="st3" d="M168.6,159.5l-1.3,28.7c0,0-5.4-28.2-16.8-28.7S136.5,149.2,138,141s-0.3-18-12.8-22.7
					c-12.4-4.7-11.1-14.3-18.2-14.3s-15.3,16.8,1.7,28.4s2.5,31.6,22.2,40.7s0.5,32.1,38.8,30.9L168.6,159.5z"/>
				<path class="st4" d="M106.7,114.6c0,0,2.7,7.2,12.6,12.8s3.9,21.3,15,32.1c11.1,10.8,19.4,17.5,22.8,34.3"/>
			</g>
			<g class="st2">
				
					<linearGradient id="SVGID_2_" gradientUnits="userSpaceOnUse" x1="135.1925" y1="174.273" x2="187.8" y2="174.273" gradientTransform="matrix(1 0 0 -1 0 318)">
					<stop  offset="0" style="stop-color:#8151CC"/>
					<stop  offset="1" style="stop-color:#FB4567"/>
				</linearGradient>
				<path class="st5" d="M187.8,158.9l-10.7,26.7c0,0,4.2-28.4-6.4-32.7c-10.6-4.2-9.8-14.3-5.7-21.6s5.6-17.1-4.6-25.6
					s-5.8-17.1-12.4-19.5s-20,10.8-7.8,27.4s-8,30.7,7.6,45.7s-10.1,30.5,26.5,42L187.8,158.9z"/>
				<path class="st4" d="M144.1,96.2c0,0,0.2,7.7,7.7,16.2c7.5,8.5-3.4,21.4,3.6,35.2c6.9,13.8,12.6,22.9,10.3,39.9"/>
			</g>
			<g class="st2">
				
					<linearGradient id="SVGID_3_" gradientUnits="userSpaceOnUse" x1="81.1237" y1="132.52" x2="186.7" y2="132.52" gradientTransform="matrix(1 0 0 -1 0 318)">
					<stop  offset="0" style="stop-color:#8151CC"/>
					<stop  offset="1" style="stop-color:#FB4567"/>
				</linearGradient>
				<path class="st6" d="M164.9,173.4l12.2,26.1c0,0-17.9-22.5-28.3-17.6c-10.4,4.9-17.1-2.6-19.6-10.6c-2.5-8-8.7-15.8-21.9-14.1
					c-13.2,1.6-16.5-7.5-22.7-4.2s-5.7,22,14.7,24.4s17,26.8,38.6,25.7s15.4,28.2,48.8,9.3L164.9,173.4z"/>
				<path class="st4" d="M89.3,162.5c0,0,5.8,5.1,17.1,5.4s13.4,17.1,28.2,21.4c14.8,4.4,25.3,6.4,36.1,19.7"/>
			</g>
			<g class="st2">
				
					<linearGradient id="SVGID_4_" gradientUnits="userSpaceOnUse" x1="86.6937" y1="97.6406" x2="192.27" y2="97.6406" gradientTransform="matrix(1 0 0 -1 0 318)">
					<stop  offset="0" style="stop-color:#8151CC"/>
					<stop  offset="1" style="stop-color:#FB4567"/>
				</linearGradient>
				<path class="st7" d="M170.5,208.3l12.2,26.1c0,0-17.9-22.5-28.3-17.6c-10.4,4.9-17.1-2.6-19.6-10.6c-2.5-8-8.7-15.8-21.9-14.1
					c-13.2,1.6-16.5-7.5-22.7-4.2s-5.7,22,14.7,24.4s17,26.8,38.6,25.7c21.6-1.1,15.4,28.2,48.8,9.3L170.5,208.3z"/>
				<path class="st4" d="M94.8,197.4c0,0,5.8,5.1,17.1,5.4s13.4,17.1,28.2,21.4c14.8,4.4,25.3,6.4,36.1,19.7"/>
			</g>
		</g>
		<g class="st1">
			
				<linearGradient id="SVGID_5_" gradientUnits="userSpaceOnUse" x1="5304.1108" y1="38.1215" x2="5342.2378" y2="38.1215" gradientTransform="matrix(-1 0 0 -1 5469.293 318)">
				<stop  offset="0" style="stop-color:#9F42DD"/>
				<stop  offset="1" style="stop-color:#E774E0"/>
			</linearGradient>
			<path class="st8" d="M157,286.3c0,0-43-0.6-45.9-8C108.2,270.8,142.1,270.8,157,286.3z"/>
			
				<linearGradient id="SVGID_6_" gradientUnits="userSpaceOnUse" x1="5324.5513" y1="45.8635" x2="5355.9858" y2="55.0081" gradientTransform="matrix(-1 0 0 -1 5469.293 318)">
				<stop  offset="0" style="stop-color:#9F42DD"/>
				<stop  offset="1" style="stop-color:#E774E0"/>
			</linearGradient>
			<path class="st9" d="M157,286.3c0,0-9.8-22.9-31.5-30.4s-21.8,12.6-2.9,14.9C141.5,273.1,157,286.3,157,286.3z"/>
			
				<linearGradient id="SVGID_7_" gradientUnits="userSpaceOnUse" x1="-15829.6562" y1="16635.918" x2="-15820.6377" y2="16643.9609" gradientTransform="matrix(1 0 0 -1 15964 16891.3086)">
				<stop  offset="0" style="stop-color:#9F42DD"/>
				<stop  offset="1" style="stop-color:#E774E0"/>
			</linearGradient>
			<path class="st10" d="M157,286.3c-9.2-15.5-21.8-29.8-34.4-39.5c-12.6-9.8-13.8-21.2-8-24.6c5.7-3.4,13.2,1.1,22.9,13.2
				s24.1,45.3,24.1,45.3L157,286.3z"/>
			
				<linearGradient id="SVGID_8_" gradientUnits="userSpaceOnUse" x1="153.5021" y1="72.9559" x2="142.666" y2="109.7987" gradientTransform="matrix(1 0 0 -1 0 318)">
				<stop  offset="0" style="stop-color:#9F42DD"/>
				<stop  offset="1" style="stop-color:#E774E0"/>
			</linearGradient>
			<path class="st11" d="M157,286.3c0,0-6.3-33.2-20-61.9c-12.9-26.9-3.6-40.7,6.6-33.8c12.2,8.2,19.3,44,17.6,90.9L157,286.3z"/>
			<g class="st12">
				<path class="st13" d="M118.8,278c0,0,16-0.3,34.1,6.7"/>
				<path class="st13" d="M117.1,259.7c0,0,22.2,3.7,37.2,25.1"/>
				<path class="st13" d="M118.8,231.6c0,0,22.9,12,37.8,51"/>
				<path class="st13" d="M139.5,198.9c8.3,20.4,15.2,42.4,20.9,70.2l-0.3,0.3"/>
			</g>
		</g>
		<g class="st1">
			<g class="st2">
				
					<linearGradient id="SVGID_9_" gradientUnits="userSpaceOnUse" x1="267.29" y1="163.9382" x2="338.3253" y2="163.9382" gradientTransform="matrix(1 0 0 -1 0 318)">
					<stop  offset="0" style="stop-color:#77C2EC;stop-opacity:0.94"/>
					<stop  offset="1" style="stop-color:#5969B1"/>
				</linearGradient>
				<path class="st14" d="M268.5,159.5l1.3,28.7c0,0,5.4-28.2,16.8-28.7s14-10.2,12.4-18.5s0.3-18,12.8-22.7
					c12.4-4.7,11.1-14.3,18.1-14.3s15.3,16.8-1.7,28.4c-17,11.6-2.5,31.6-22.2,40.7s-0.5,32.1-38.8,30.9L268.5,159.5z"/>
				<path class="st4" d="M330.3,114.6c0,0-2.7,7.2-12.6,12.8c-9.9,5.5-3.9,21.3-15,32.1S283.4,177,280,193.8"/>
			</g>
			<g class="st2">
				
					<linearGradient id="SVGID_10_" gradientUnits="userSpaceOnUse" x1="249.26" y1="174.273" x2="301.8675" y2="174.273" gradientTransform="matrix(1 0 0 -1 0 318)">
					<stop  offset="0" style="stop-color:#77C2EC;stop-opacity:0.94"/>
					<stop  offset="1" style="stop-color:#5969B1"/>
				</linearGradient>
				<path class="st15" d="M249.3,158.9l10.7,26.7c0,0-4.2-28.4,6.4-32.7c10.6-4.2,9.8-14.3,5.7-21.6c-4.1-7.3-5.6-17.1,4.6-25.6
					c10.2-8.5,5.8-17.1,12.5-19.5s20,10.8,7.8,27.4s8,30.7-7.6,45.7s10.1,30.5-26.5,42L249.3,158.9z"/>
				<path class="st4" d="M292.9,96.2c0,0-0.2,7.7-7.7,16.2c-7.5,8.5,3.4,21.4-3.6,35.2c-6.9,13.8-12.6,22.9-10.3,39.9"/>
			</g>
			<g class="st2">
				
					<linearGradient id="SVGID_11_" gradientUnits="userSpaceOnUse" x1="250.36" y1="132.5206" x2="355.9363" y2="132.5206" gradientTransform="matrix(1 0 0 -1 0 318)">
					<stop  offset="0" style="stop-color:#77C2EC;stop-opacity:0.94"/>
					<stop  offset="1" style="stop-color:#5969B1"/>
				</linearGradient>
				<path class="st16" d="M272.2,173.4L260,199.5c0,0,17.9-22.5,28.3-17.6s17.1-2.6,19.6-10.6c2.5-8,8.7-15.8,21.9-14.1
					c13.2,1.6,16.5-7.5,22.7-4.2s5.7,22-14.7,24.4s-17,26.8-38.6,25.7c-21.6-1.1-15.4,28.2-48.8,9.3L272.2,173.4z"/>
				<path class="st4" d="M347.8,162.5c0,0-5.8,5.1-17.1,5.4s-13.4,17.1-28.2,21.4c-14.8,4.4-25.3,6.4-36.1,19.7"/>
			</g>
			<g class="st2">
				
					<linearGradient id="SVGID_12_" gradientUnits="userSpaceOnUse" x1="244.79" y1="97.6406" x2="350.3663" y2="97.6406" gradientTransform="matrix(1 0 0 -1 0 318)">
					<stop  offset="0" style="stop-color:#77C2EC;stop-opacity:0.94"/>
					<stop  offset="1" style="stop-color:#5969B1"/>
				</linearGradient>
				<path class="st17" d="M266.6,208.3l-12.2,26.1c0,0,17.9-22.5,28.3-17.6s17.1-2.6,19.6-10.6c2.5-8,8.7-15.8,21.9-14.1
					c13.2,1.6,16.5-7.5,22.7-4.2s5.7,22-14.7,24.4s-17,26.8-38.6,25.7c-21.6-1.1-15.4,28.2-48.8,9.3L266.6,208.3z"/>
				<path class="st4" d="M342.2,197.4c0,0-5.8,5.1-17.1,5.4c-11.4,0.3-13.4,17.1-28.2,21.4c-14.8,4.4-25.3,6.4-36.1,19.7"/>
			</g>
		</g>
		<linearGradient id="SVGID_13_" gradientUnits="userSpaceOnUse" x1="280.09" y1="279.8785" x2="326.1219" y2="279.8785">
			<stop  offset="0" style="stop-color:#77C2EC;stop-opacity:0.94"/>
			<stop  offset="1" style="stop-color:#5969B1"/>
		</linearGradient>
		<path class="st18" d="M280.1,286.3c0,0,43-0.6,45.9-8C328.8,270.8,295,270.8,280.1,286.3z"/>
		
			<linearGradient id="SVGID_14_" gradientUnits="userSpaceOnUse" x1="280.09" y1="47.695" x2="328.3327" y2="47.695" gradientTransform="matrix(1 0 0 -1 0 318)">
			<stop  offset="0" style="stop-color:#77C2EC;stop-opacity:0.94"/>
			<stop  offset="1" style="stop-color:#5969B1"/>
		</linearGradient>
		<path class="st19" d="M280.1,286.3c0,0,9.8-22.9,31.5-30.4c21.8-7.4,21.8,12.6,2.9,14.9C295.6,273.1,280.1,286.3,280.1,286.3z"/>
		
			<linearGradient id="SVGID_15_" gradientUnits="userSpaceOnUse" x1="275.51" y1="64.3461" x2="325.8253" y2="64.3461" gradientTransform="matrix(1 0 0 -1 0 318)">
			<stop  offset="0" style="stop-color:#77C2EC;stop-opacity:0.94"/>
			<stop  offset="1" style="stop-color:#5969B1"/>
		</linearGradient>
		<path class="st20" d="M275.5,280.6c0,0,14.3-33.2,24.1-45.3s17.2-16.6,22.9-13.2c5.7,3.4,4.6,14.9-8,24.6
			c-12.6,9.8-25.2,24.1-34.4,39.5L275.5,280.6z"/>
		
			<linearGradient id="SVGID_16_" gradientUnits="userSpaceOnUse" x1="275.6281" y1="80.4034" x2="306.3997" y2="80.4034" gradientTransform="matrix(1 0 0 -1 0 318)">
			<stop  offset="0" style="stop-color:#77C2EC;stop-opacity:0.94"/>
			<stop  offset="1" style="stop-color:#5969B1"/>
		</linearGradient>
		<path class="st21" d="M280.1,286.3c0,0,6.3-33.2,20-61.9c12.9-26.9,3.6-40.7-6.6-33.8c-12.2,8.2-19.3,44-17.6,90.9L280.1,286.3z"
			/>
		<g class="st22">
			<path class="st23" d="M318.2,278c0,0-16-0.3-34.1,6.7"/>
			<path class="st23" d="M319.9,259.7c0,0-22.1,3.7-37.2,25.1"/>
			<path class="st23" d="M318.2,231.6c0,0-22.9,12-37.8,51"/>
			<path class="st23" d="M297.6,198.9c-8.3,20.4-15.2,42.4-20.9,70.2l0.3,0.3"/>
		</g>
	</g>
	<g>
		<path d="M282.1,288.4H172.9c-8.6,0-15.6-7-15.6-15.6V40.5c0-8.6,7-15.6,15.6-15.6h109.2c8.6,0,15.6,7,15.6,15.6v232.3
			C297.7,281.4,290.7,288.4,282.1,288.4z"/>
		<path class="st24" d="M292.5,43.4v226.4c0,7.2-5.9,13.1-13.1,13.1H175.8c-7.2,0-13.1-5.9-13.1-13.1V43.4c0-7.2,5.9-13.1,13.1-13.1
			h28c1.1,0,2,0.6,2.4,1.6l2,4.9c0.4,0.9,1.3,1.5,2.2,1.5h38.8c1,0,1.8-0.6,2.2-1.5l1.9-4.3c0.6-1.4,2-2.3,3.5-2.3h22.4
			C286.6,30.3,292.5,36.2,292.5,43.4z"/>
		<path class="st25" d="M292.5,43.2v4.8H162.7v-4.8c0-7.2,5.9-13.1,13.1-13.1h28c1.1,0,2,0.6,2.4,1.6l2,4.9c0.4,0.9,1.3,1.5,2.2,1.5
			h38.8c1,0,1.8-0.6,2.2-1.5l1.9-4.3c0.6-1.4,2-2.3,3.5-2.3h22.4C286.6,30.1,292.5,36,292.5,43.2z"/>
		<g>
			<path class="st26" d="M250.2,126.6c0,7-3.1,13.2-8,17.3c-3.9,3.3-9.1,5.4-14.6,5.4c-5.5,0-10.6-2-14.5-5.2
				c-5-4.2-8.2-10.4-8.2-17.5c0-12.5,10.2-22.7,22.7-22.7C240.1,103.9,250.2,114.1,250.2,126.6z"/>
			<path class="st27" d="M242.2,144c-3.9,3.3-9.1,5.4-14.6,5.4c-5.5,0-10.6-2-14.5-5.2c0.4-4.3,1.6-8.2,3.3-11.3
				c1.1-2.1,3.7-2.9,5.8-1.9c1.6,0.8,3.5,1.2,5.4,1.2c2,0,3.8-0.4,5.5-1.2c2.1-1,4.7-0.2,5.8,1.9C240.6,135.8,241.7,139.7,242.2,144
				z"/>
			<path class="st27" d="M237,119.3c0,5.2-4.2,9.4-9.4,9.4s-9.4-4.2-9.4-9.4s4.2-9.4,9.4-9.4S237,114.1,237,119.3z"/>
		</g>
		<g>
			<g>
				
					<ellipse transform="matrix(0.1602 -0.9871 0.9871 0.1602 2.6134 447.8517)" class="st28" cx="264.5" cy="222.4" rx="13.7" ry="13.7"/>
				<path class="st24" d="M267,216.8c0,0,1.2-3.8,2.2-3.9c1-0.1,4.9,2.4,4.2,6.6s-6.4,10.2-10.9,10.6c-4.5,0.4-7.5-2.4-7.1-3.4
					s2.2-3.3,3.9-2.5c1.6,0.8,3,2.5,4.9,1.1c1.9-1.5,5-4.1,5.2-5.5C269.6,218.4,267,218.3,267,216.8z"/>
			</g>
			<g>
				<circle class="st29" cx="190.6" cy="222.4" r="13.7"/>
				<path class="st24" d="M193.2,216.8c0,0,1.2-3.8,2.2-3.9c1-0.1,4.9,2.4,4.2,6.6s-6.4,10.2-10.9,10.6s-7.5-2.4-7.1-3.4
					s2.2-3.3,3.9-2.5c1.6,0.8,3,2.5,4.9,1.1c1.9-1.5,5-4.1,5.2-5.5C195.8,218.4,193.2,218.3,193.2,216.8z"/>
			</g>
			<g>
				<path class="st30" d="M214.8,222.4c0,1.2-0.9,2.1-2.1,2.1s-2.1-0.9-2.1-2.1s0.9-2.1,2.1-2.1S214.8,221.2,214.8,222.4z"/>
				<path class="st30" d="M224.1,222.5c0,1.2-0.9,2.1-2.1,2.1s-2.1-0.9-2.1-2.1c0-1.2,0.9-2.1,2.1-2.1S224.1,221.3,224.1,222.5z"/>
				<path class="st30" d="M233.3,222.4c0,1.2-0.9,2.1-2.1,2.1s-2.1-0.9-2.1-2.1s0.9-2.1,2.1-2.1S233.3,221.2,233.3,222.4z"/>
				<path class="st30" d="M242.6,222.5c0,1.2-0.9,2.1-2.1,2.1s-2.1-0.9-2.1-2.1c0-1.2,0.9-2.1,2.1-2.1S242.6,221.3,242.6,222.5z"/>
			</g>
		</g>
		<g>
			<path class="st31" d="M243.5,168.2h-34.9c-2.8,0-5-2.2-5-5l0,0c0-2.8,2.2-5,5-5h34.9c2.8,0,5,2.2,5,5l0,0
				C248.4,166,246.2,168.2,243.5,168.2z"/>
			<path class="st30" d="M207.5,186.2h-10.1c-0.8,0-1.5-0.7-1.5-1.5v-0.1c0-0.8,0.7-1.5,1.5-1.5h10.1c0.8,0,1.5,0.7,1.5,1.5v0.1
				C209,185.5,208.3,186.2,207.5,186.2z"/>
			<path class="st30" d="M225.4,186.2h-10.1c-0.8,0-1.5-0.7-1.5-1.5v-0.1c0-0.8,0.7-1.5,1.5-1.5h10.1c0.8,0,1.5,0.7,1.5,1.5v0.1
				C227,185.5,226.3,186.2,225.4,186.2z"/>
			<path class="st30" d="M243.3,186.2h-10.1c-0.8,0-1.5-0.7-1.5-1.5v-0.1c0-0.8,0.7-1.5,1.5-1.5h10.1c0.8,0,1.5,0.7,1.5,1.5v0.1
				C244.8,185.5,244.1,186.2,243.3,186.2z"/>
			<path class="st30" d="M261.2,186.2h-10.1c-0.8,0-1.5-0.7-1.5-1.5v-0.1c0-0.8,0.7-1.5,1.5-1.5h10.1c0.8,0,1.5,0.7,1.5,1.5v0.1
				C262.8,185.5,262.1,186.2,261.2,186.2z"/>
			<path class="st30" d="M263.2,176.7H192c-1.4,0-2.5-1.1-2.5-2.5l0,0c0-1.4,1.1-2.5,2.5-2.5h71.2c1.4,0,2.5,1.1,2.5,2.5l0,0
				C265.7,175.6,264.6,176.7,263.2,176.7z"/>
		</g>
		<rect x="162.8" y="48.1" class="st32" width="129.7" height="12.2"/>
		<path class="st30" d="M249.1,268.4h-46.3c-2.2,0-3.9-1.8-3.9-3.9l0,0c0-2.2,1.8-3.9,3.9-3.9h46.3c2.2,0,3.9,1.8,3.9,3.9l0,0
			C253,266.6,251.3,268.4,249.1,268.4z"/>
	</g>
	<g>
		
			<linearGradient id="SVGID_17_" gradientUnits="userSpaceOnUse" x1="341.9412" y1="177.2111" x2="336.4168" y2="203.1962" gradientTransform="matrix(1 0 0 -1 0 318)">
			<stop  offset="0" style="stop-color:#E0B168"/>
			<stop  offset="3.631285e-02" style="stop-color:#E0B168"/>
			<stop  offset="1" style="stop-color:#C2B43F"/>
		</linearGradient>
		<path class="st33" d="M340.6,125.9l0.8,4.9H341l-2.9,0.6l-1,0.2c-0.5-3.4-1.4-4.7-2.9-8c-0.5-1.2-0.9-2.8-1.1-4.4
			c-0.4-2.6-0.4-4.9-0.2-5c0.3-0.1,1.5,6,1.5,6s-1-8.3-0.4-8.3c0.5,0,1.6,7.2,1.6,7.6c0-0.5-0.8-8.6-0.3-8.7
			c0.5-0.1,2.3,8.5,2.3,8.7c0-0.2-0.8-7.4-0.4-7.5c0.4-0.1,0.9,3,1.4,5.3c0.2,1.3,0.7,2.5,0.7,2.5c1.4-1.9,0.5-5.1,1-5.1
			c0.4,0,1.2,2.9,1.2,4.5c0,0.2,0,0.4,0,0.6l0,0c0,0.1,0,0.2,0,0.2l0,0c0,0.3-0.1,0.7-0.1,1.1C341.1,123.2,340.6,125.9,340.6,125.9z
			"/>
		<path class="st34" d="M337.6,127.9c0,1.8,0.5,3.5,0.5,3.5l-1,0.2c-0.5-3.4-1.4-4.7-2.9-8c-0.5-1.2-0.9-2.8-1.1-4.4
			c0.4,1.4,1.1,3.7,2,4.9C336.5,125.8,337.6,126.1,337.6,127.9z"/>
		
			<linearGradient id="SVGID_18_" gradientUnits="userSpaceOnUse" x1="341.4087" y1="198.0671" x2="341.428" y2="198.0671" gradientTransform="matrix(1 0 0 -1 0 318)">
			<stop  offset="0" style="stop-color:#F99393"/>
			<stop  offset="1" style="stop-color:#FFB0B4"/>
		</linearGradient>
		<path class="st35" d="M341.4,119.8c0,0.1,0,0.2,0,0.2C341.4,119.9,341.4,119.9,341.4,119.8z"/>
		<path class="st34" d="M341.5,130.8H341l-2.9,0.6l2.9-0.7c0,0-1.5-4.2-1.2-5.5c0.2-1,1.2-2.5,1.5-4.2c-0.2,2-0.7,4.8-0.7,4.8
			L341.5,130.8z"/>
		<path class="st36" d="M382.9,275.7l0.4,13.2h-0.6l-0.7-6.5c0,0,0.3,5-3.4,7.6c-4.8,3.4-6.4-0.3-5-2.5c2.2-3.4,3.3-6.5,3.8-12.1
			C377.4,275.4,380.2,273.4,382.9,275.7z"/>
		
			<linearGradient id="SVGID_19_" gradientUnits="userSpaceOnUse" x1="2794.0496" y1="36.1809" x2="2799.1504" y2="36.1809" gradientTransform="matrix(-1 0 0 -1 3175.2671 318)">
			<stop  offset="0" style="stop-color:#E0B168"/>
			<stop  offset="3.631285e-02" style="stop-color:#E0B168"/>
			<stop  offset="1" style="stop-color:#C2B43F"/>
		</linearGradient>
		<path class="st37" d="M377.8,277c1.9,0.5,3.4,0.1,3.4,0.1s-0.3,6.8-3,8.7c-2.9,2-2.1-0.9-1.6-2C377.7,281.4,377.8,277,377.8,277z"
			/>
		
			<linearGradient id="SVGID_20_" gradientUnits="userSpaceOnUse" x1="2801.7922" y1="106.2934" x2="2790.3342" y2="54.7323" gradientTransform="matrix(-1 0 0 -1 3175.2671 318)">
			<stop  offset="0" style="stop-color:#E0B168"/>
			<stop  offset="3.631285e-02" style="stop-color:#E0B168"/>
			<stop  offset="1" style="stop-color:#C2B43F"/>
		</linearGradient>
		<path class="st38" d="M368.7,209c0,0,2.2,13.6,2.9,19.6s4.1,39,5.9,47.1c0,0,0.6,0.4,1.5,0.6c1,0.2,2.4,0.3,4-0.6
			c0,0-1.1-29.5-0.5-38.6c0.5-9.1-0.7-21.1,0.5-28.1c0.9-5.3-7.8-2.5-12-0.9C369.5,208.6,368.7,209,368.7,209z"/>
		<path class="st36" d="M363.7,275.7l0.4,13.2h-0.6l-0.7-6.5c0,0,0.3,5-3.4,7.6c-4.8,3.4-6.4-0.3-5-2.5c2.2-3.4,3.3-6.5,3.8-12.1
			C358.2,275.5,361,273.4,363.7,275.7z"/>
		<linearGradient id="SVGID_21_" gradientUnits="userSpaceOnUse" x1="356.8866" y1="281.8891" x2="361.9874" y2="281.8891">
			<stop  offset="0" style="stop-color:#E0B168"/>
			<stop  offset="3.631285e-02" style="stop-color:#E0B168"/>
			<stop  offset="1" style="stop-color:#C2B43F"/>
		</linearGradient>
		<path class="st39" d="M358.6,277.1c1.9,0.5,3.4,0.1,3.4,0.1s-0.3,6.8-3,8.7c-2.9,2-2.1-0.9-1.6-2
			C358.4,281.5,358.6,277.1,358.6,277.1z"/>
		
			<linearGradient id="SVGID_22_" gradientUnits="userSpaceOnUse" x1="363.4705" y1="106.8389" x2="352.0613" y2="55.4971" gradientTransform="matrix(1 0 0 -1 0 318)">
			<stop  offset="0" style="stop-color:#E0B168"/>
			<stop  offset="3.631285e-02" style="stop-color:#E0B168"/>
			<stop  offset="1" style="stop-color:#C2B43F"/>
		</linearGradient>
		<path class="st40" d="M363.1,214.6c-0.2,6.8,0.4,15.5,0,22.5c-0.5,9.1,0.5,38.6,0.5,38.6c-1,0.6-1.9,0.8-2.8,0.8
			c-0.5,0-0.9-0.1-1.2-0.1c-0.9-0.2-1.5-0.6-1.5-0.6c-1.8-8-5.2-41.1-5.9-47.1c-0.7-6-2.9-19.6-2.9-19.6s0.9-0.4,2.2-0.9
			c4.2-1.6,12.9-4.4,12,0.9C363.3,210.7,363.2,212.6,363.1,214.6z"/>
		<path class="st34" d="M360.9,276.5c1.2-4.3,1.3-11.6,0-18.7c-1.6-9.1-0.3-14.2,0-22.2s-1.9-19.1-1.9-19.1l4.1-1.9
			c-0.2,6.8,0.4,15.5,0,22.5c-0.5,9.1,0.5,38.6,0.5,38.6C362.6,276.3,361.7,276.5,360.9,276.5z"/>
		<path class="st34" d="M380.1,276.5c1.2-4.3,1.3-11.6,0-18.7c-1.6-9.1-0.3-14.2,0-22.2s-1.9-19.1-1.9-19.1l4.1-1.9
			c-0.2,6.8,0.4,15.5,0,22.5c-0.5,9.1,0.5,38.6,0.5,38.6C381.9,276.3,380.9,276.5,380.1,276.5z"/>
		<path class="st41" d="M324.3,150"/>
		<path class="st32" d="M355.5,128.2c0,0,1-4.3-0.5-14.7c-1.5-10.4-0.3-17.1,3.8-15.3c0,0,0-3.1,4.8-4.1c4.8-0.9,10.2,2.7,11.4,9.5
			c1.2,6.8,2,20.6,4.2,24.7C381.3,132.3,355.5,128.2,355.5,128.2z"/>
		
			<linearGradient id="SVGID_23_" gradientUnits="userSpaceOnUse" x1="377.3772" y1="148.2807" x2="361.2173" y2="103.7424" gradientTransform="matrix(1 0 0 -1 0 318)">
			<stop  offset="0" style="stop-color:#662ACC"/>
			<stop  offset="1" style="stop-color:#7459D6"/>
		</linearGradient>
		<path class="st42" d="M384.9,196.7c-0.2,9.4-0.7,19-0.7,19c-19.2,6.8-34.9,0.8-34.9,0.8c-1.2-9.7-1.6-23.8,0.8-33.6
			c1.5-6.1,2.7-10.3,2.7-10.3l31-1.1C385,177,385.1,187.5,384.9,196.7z"/>
		
			<linearGradient id="SVGID_24_" gradientUnits="userSpaceOnUse" x1="380.3892" y1="177.8553" x2="363.675" y2="113.4441" gradientTransform="matrix(1 0 0 -1 0 318)">
			<stop  offset="0" style="stop-color:#5629A9"/>
			<stop  offset="1" style="stop-color:#603DB7;stop-opacity:0"/>
		</linearGradient>
		<path class="st43" d="M384.9,196.7c-3-1.5-7.2-4.1-12.6-8.6c-9.5-8-18.9-6.1-22.2-5.1c1.5-6.1,2.7-10.3,2.7-10.3l31-1.1
			C385,177,385.1,187.5,384.9,196.7z"/>
		
			<linearGradient id="SVGID_25_" gradientUnits="userSpaceOnUse" x1="387.4935" y1="149.8091" x2="380.1276" y2="134.0543" gradientTransform="matrix(1 0 0 -1 0 318)">
			<stop  offset="0" style="stop-color:#E0B168"/>
			<stop  offset="3.631285e-02" style="stop-color:#E0B168"/>
			<stop  offset="1" style="stop-color:#C2B43F"/>
		</linearGradient>
		<path class="st44" d="M384.4,177.6c0,0,0.1,1.2-0.5,3.3c-0.4,1.3-1.6,2.4-2.5,3.6c-0.3,0.4-0.5,1-0.5,1.4c0,0.3,0,0.5,0,0.8
			c0,0.8,1.4,3.6,0.7,3.3c-0.5-0.2-1.3-2-1.6-3.1c-0.4-1.3,0.1-3.7,0.1-3.8c0,0-0.3,0.5-0.5,1.5c-0.1,0.6-0.3,1.6-0.1,2.2
			c0.5,2.3,1.4,4.1,1,4.1c-0.4,0-1.1-1.5-1.9-3.4c-0.3-0.7-0.3-1.5-0.3-2.6c0-1.3,0.1-2.3,0.1-2.3c-0.4,1.8-0.5,2.9-0.5,3.8
			c0,0.9,0.4,3.8,0.1,3.7c-0.4-0.2-1-2.3-1.1-3.3c-0.2-1.8-0.2-4.5,0.1-5.1c0.5-0.9,4.4-6.6,4.4-6.6l2.7,1.3l1,0.5L384.4,177.6z"/>
		<path class="st34" d="M384.4,177.6c0,0,0.1,1.2-0.5,3.3c-0.4,1.3-1.6,2.4-2.5,3.6c-0.3,0.4-0.5,1-0.5,1.4c0,0-0.5-1.4,1-3.4
			s1-4,1.2-4.8c0.1-0.4,0.5-1,0.8-1.4l1,0.5L384.4,177.6z"/>
		
			<linearGradient id="SVGID_26_" gradientUnits="userSpaceOnUse" x1="373.0004" y1="115.0558" x2="364.2462" y2="193.5997" gradientTransform="matrix(1 0 0 -1 0 318)">
			<stop  offset="0" style="stop-color:#F4BA38"/>
			<stop  offset="1" style="stop-color:#FFD349"/>
		</linearGradient>
		<path class="st45" d="M396.6,149.9c-0.1-1.5-14.9-23.6-16-24c-1.1-0.4-12-1.2-14.5-0.6l-3,0.1c0,0-8.8,1-10.5,2.8
			c-1.1,1.2-4.3,10.7-6.1,16.4c-0.7,2.1-1.1,3.6-1.3,4.1c0,0.1,0,0.1,0,0.1l-0.6-3.6L342,130l-6.4,1.2c0,0,1.6,15.6,2.3,21.4
			s2.2,11.6,4,12.8c1.8,1.2,6.5,0.4,7.6-1.4c0.7-1.2,2.1-3.5,3.7-8.2c0.7-2,1.3-3.9,1.7-5.3c0.1-0.2,0.1-0.5,0.2-0.7
			c0,0,0,0.7,0,1.9c0,0.1,0,0.2,0,0.3c-0.1,4-0.5,12.8-2.7,22c0,0,12.8,6.3,27.1,0c0.5-0.2,1-0.5,1.6-0.7c0.1,0,0.1-0.1,0.2-0.1
			l-0.7,1.2l0,0l4.9,2.5c0,0,6-12.4,8.2-17.5C395.9,154.5,396.7,151.4,396.6,149.9z M386.9,150.7c-0.1,0.6-1.5,7.1-2.4,11.5
			c-0.3,1.4-0.5,2.5-0.7,3.2c-0.1,0.5-0.2,0.7-0.2,0.7s0,0,0-0.1c-0.2-1.2-2-13-2-14.9c0-2.1,0.8-6.8,0.8-6.8s0,0,0.1,0.1
			C383.1,145.2,387,149.8,386.9,150.7z"/>
		
			<linearGradient id="SVGID_27_" gradientUnits="userSpaceOnUse" x1="357.3185" y1="155.5939" x2="351.0435" y2="193.7892" gradientTransform="matrix(1 0 0 -1 0 318)">
			<stop  offset="0" style="stop-color:#FF911E"/>
			<stop  offset="1" style="stop-color:#FE931E;stop-opacity:0"/>
		</linearGradient>
		<path class="st46" d="M354.1,144.6c0.2,1.3,0.6,4.2,0.8,6c-0.4,1.4-1,3.2-1.7,5.3c-0.6-3.6-1.6-10.7-1-11.9
			c0.8-1.6,3.8-7.4,3.8-7.4S353.9,142.7,354.1,144.6z"/>
		<path class="st47" d="M355.1,151.9c0,0.1,0,0.2,0,0.2l0,0.1C355.1,152.1,355.1,152,355.1,151.9z"/>
		<path class="st47" d="M376.2,149.9"/>
		
			<linearGradient id="SVGID_28_" gradientUnits="userSpaceOnUse" x1="386.2192" y1="131.9322" x2="373.1236" y2="190.0438" gradientTransform="matrix(1 0 0 -1 0 318)">
			<stop  offset="0" style="stop-color:#FF911E"/>
			<stop  offset="1" style="stop-color:#FE931E;stop-opacity:0"/>
		</linearGradient>
		<path class="st48" d="M381.6,151.1c0,1.9,1.8,13.6,2,14.9c-1,3.5-2,6.1-2.5,7.4c-0.5,0.3-2.5,1-3.1,1.3c0.3-3.9,2-8.1,0.7-16.1
			c-2.4-13.9-0.3-19.6-0.3-19.6l4,5.4c-0.1-0.1-0.1-0.1-0.1-0.1S381.6,149.1,381.6,151.1z"/>
		
			<linearGradient id="SVGID_29_" gradientUnits="userSpaceOnUse" x1="383.7674" y1="154.2171" x2="384.4959" y2="154.2171" gradientTransform="matrix(1 0 0 -1 0 318)">
			<stop  offset="0" style="stop-color:#FF911E"/>
			<stop  offset="1" style="stop-color:#FE931E;stop-opacity:0"/>
		</linearGradient>
		<path class="st49" d="M384.5,162.6c-0.2,1-0.5,1.9-0.7,2.8c0.1-0.7,0.4-1.9,0.7-3.2L384.5,162.6z"/>
		<path class="st50" d="M371.6,126.3c0,0-0.9,3.6-2,8c-1.7,6.7-3.9,15.1-4.3,14.8c-0.2-0.1-0.5-2.9-0.9-6.4
			c-0.7-6.7-1.5-16.4-1.5-16.4H371.6z"/>
		
			<linearGradient id="SVGID_30_" gradientUnits="userSpaceOnUse" x1="343.3767" y1="166.4021" x2="349.6965" y2="166.4021" gradientTransform="matrix(1 0 0 -1 0 318)">
			<stop  offset="0" style="stop-color:#FF911E"/>
			<stop  offset="1" style="stop-color:#FE931E;stop-opacity:0"/>
		</linearGradient>
		<path class="st51" d="M347,158.6l-1.9-10c0.1-0.5,0.6-2,1.3-4.1L347,158.6z"/>
		
			<linearGradient id="SVGID_31_" gradientUnits="userSpaceOnUse" x1="374.1975" y1="179.0086" x2="363.9671" y2="208.2676" gradientTransform="matrix(1 0 0 -1 0 318)">
			<stop  offset="0" style="stop-color:#E0B168"/>
			<stop  offset="3.631285e-02" style="stop-color:#E0B168"/>
			<stop  offset="1" style="stop-color:#C2B43F"/>
		</linearGradient>
		<path class="st52" d="M371.6,126.3c0,0-3.8,4.2-8.7,0c0,0,0.5-1.3,0.6-3.4c0-0.6,0-1.2,0-1.9c0,0-0.4,0.3-1.1,0.4
			c-0.3,0.1-0.7,0.1-1.1-0.1c-1.2-0.4-4.2-4.8-4.5-14.1c0,0,2-1,3.4-4.6c0.2-0.6,0.5-1.3,0.6-2.1c0,0,1.2,4.5,6.1,6.6
			c0,0,0,0.1,0,0.1c0.1,0.7,0.8,4.2,2.2,5.7c0,0,0.1-5.7,1.9-5.3s0.7,5,0.5,5.5c-0.3,0.7-1,0.3-1,0.3S370.4,122.5,371.6,126.3z"/>
		<path class="st34" d="M367,118.7c0,0-0.9,3-3.5,4.3c0-0.6,0-1.2,0-1.9c0,0-0.4,0.3-1.1,0.4l0,0C362.3,121.4,364.2,120.8,367,118.7
			z"/>
		<path class="st34" d="M366.9,107.3c-3.1-0.2-5.6-3-6.8-4.6c0.2-0.6,0.5-1.3,0.6-2.1c0,0,1.2,4.5,6.1,6.6
			C366.8,107.2,366.8,107.2,366.9,107.3z"/>
		<path class="st53" d="M369.6,134.3c-1.7,6.7-3.9,15.1-4.3,14.8c-0.2-0.1-0.5-2.9-0.9-6.4L369.6,134.3z"/>
	</g>
	<g>
		<polygon class="st50" points="58.3,137.8 64.3,132.1 76.3,137.8 74.2,195 64.2,195 		"/>
		<path class="st54" d="M50.9,289.6c-0.8,0.5-2.4,0.7-2.4,0.7l-9.8-2.3c3.2-1,5.7-2.6,6.5-3.8c0.4-0.6,0.6-2.2,0.8-3.6
			c0.1-1.4,0.2-2.5,0.2-2.5l5.2-0.8c0,0,0,1.4,0,3.3C51.5,284.1,51.4,289.3,50.9,289.6z"/>
		<path class="st55" d="M51.4,280.6c-0.9,0.1-2.7,0.3-5.4,0c0.1-1.4,0.2-2.5,0.2-2.5l5.2-0.8C51.4,277.3,51.4,278.7,51.4,280.6z"/>
		<path class="st54" d="M85.6,289.9c0,0-7.1,2.4-8.7,2c-1.6-0.3-0.5-4-0.3-6.1c0.1-1,0-3.1-0.1-4.9c-0.1-1.9-0.3-3.6-0.3-3.6h5.4
			c0,0,0.1,1.7,0.2,3.4c0.1,1.5,0.2,2.9,0.3,3.5C82.5,285.5,85.6,289.9,85.6,289.9z"/>
		<path class="st55" d="M81.9,280.7c-1.4,0.1-3.2,0.2-5.3,0.2c-0.1-1.9-0.3-3.6-0.3-3.6h5.4C81.7,277.3,81.8,278.9,81.9,280.7z"/>
		
			<linearGradient id="SVGID_32_" gradientUnits="userSpaceOnUse" x1="45.2" y1="83.77" x2="83.4" y2="83.77" gradientTransform="matrix(1 0 0 -1 0 318)">
			<stop  offset="0" style="stop-color:#7C45CC"/>
			<stop  offset="1" style="stop-color:#FB4567"/>
		</linearGradient>
		<path class="st56" d="M83.4,190.4c0,0,0,42.5,0,46.2s-0.8,42-0.8,42h-6.6c0,0-3.9-34.5-4.1-40.5c-0.1-6-2.8-32.7-2.8-32.7
			l-0.1,0.2l-8.5,28.7c0,0-1.6,5.5-2.8,14c-1.2,8.5-6.2,30.3-6.2,30.3h-6.6l2.9-42.5l4.6-46.2c8.5,1.1,17,1.4,25.5,0.9
			C80,190.7,81.7,190.6,83.4,190.4z"/>
		<path class="st57" d="M48.5,290.4c0,0-3.2-4.3-7.7-3.1c-4.4,1.2-3.4,2.8-2.6,3.1C39,290.8,44.5,291.7,48.5,290.4z"/>
		<path class="st57" d="M85.4,291.6c-1.1,0.2-9,1.1-9.2,0c-0.1-0.8,0.3-2.8,2.5-3.1c2.2-0.4,6.7,1,7.3,1.7
			C86.7,290.8,86,291.4,85.4,291.6z"/>
		
			<linearGradient id="SVGID_33_" gradientUnits="userSpaceOnUse" x1="78.2471" y1="83.505" x2="83.4071" y2="83.505" gradientTransform="matrix(1 0 0 -1 0 318)">
			<stop  offset="0" style="stop-color:#6D5BB8"/>
			<stop  offset="1" style="stop-color:#604AB7;stop-opacity:0"/>
		</linearGradient>
		<path class="st58" d="M83.4,190.4c0,0,0,42.5,0,46.2s-0.8,42-0.8,42h-1.7c0.2-3.2,0.7-12-0.1-21.5c-1.1-12.1-1.7-16.5,0-30.8
			c1.4-11.4-1.4-28.9-2.5-35.4C80,190.7,81.7,190.6,83.4,190.4z"/>
		
			<linearGradient id="SVGID_34_" gradientUnits="userSpaceOnUse" x1="63.2829" y1="131.1523" x2="55.8519" y2="24.2307" gradientTransform="matrix(1 0 0 -1 0 318)">
			<stop  offset="0" style="stop-color:#6D5BB8"/>
			<stop  offset="1" style="stop-color:#604AB7;stop-opacity:0"/>
		</linearGradient>
		<path class="st59" d="M69.2,205.6l-8.5,28.7c0,0-1.6,5.5-2.8,14c-1.2,8.5-6.2,30.3-6.2,30.3h-2.1c2-7.2,3.1-13,4.3-21.5
			c1.3-9-0.5-9.6,2.2-22.8c1.3-6.4,5.8-12.5,7.1-20.1c1.9-10.8,4.5-17.2,4.5-17.2L69.2,205.6z"/>
		<path class="st60" d="M94.7,207.9c0,0,0.9,8.5,0.7,9.1c-0.3,0.5-7.7,3.2-8.7,0.7c-1.3-3.5,0-23,0-23s-0.1-6.7,1.3-6.4
			C89.4,188.4,94.7,207.9,94.7,207.9z"/>
		<path class="st61" d="M87.7,200.8c0,0-0.8-9.2,0-10.4c0.8-1.2,1.8-1.1,3.4,6c1.6,7.1,1.8,12.6,2.9,13.1c1.1,0.5,2.8,0.7,2.8,0.7
			s-6.3-25.1-8-25.1c-1.7,0-3.8,2-3.4,15.1C85.4,200.2,85.8,205.1,87.7,200.8z"/>
		
			<linearGradient id="SVGID_35_" gradientUnits="userSpaceOnUse" x1="65.8557" y1="185.319" x2="66.2199" y2="175.6083" gradientTransform="matrix(1 0 0 -1 0 318)">
			<stop  offset="0" style="stop-color:#E85B7D"/>
			<stop  offset="1" style="stop-color:#FF78AF"/>
		</linearGradient>
		<path class="st62" d="M70.6,122.7l-0.2,4.6l-0.1,3l-0.1,4.2c-5.1,7.5-8.8,0-8.8,0l-0.5-4.8l-0.2-1.6l-0.1-1L70.6,122.7z"/>
		<path class="st63" d="M70.3,127.1v3c-1.2,1.7-2.9,3.5-4.2,3.6c-1.8,0.1-4-2.4-5.2-3.8l-0.2-1.6C62.9,126.8,67.7,126.9,70.3,127.1z
			"/>
		<path class="st64" d="M56.5,118.9c0,0-1.2-4.5-0.7-6.8c0.5-2.2,2.6-1.2,2.6-1.2s-1.1-2,0.5-3.8s8.1-2.7,11.9-1.1
			c3.8,1.6,1.5,5,1.5,5s4.8-1.2,1.5,7.2l-7.4,3.1l-9.8-2.3V118.9z"/>
		
			<linearGradient id="SVGID_36_" gradientUnits="userSpaceOnUse" x1="60.7921" y1="197.2197" x2="54.5456" y2="197.6898" gradientTransform="matrix(1 0 0 -1 0 318)">
			<stop  offset="0" style="stop-color:#E85B7D"/>
			<stop  offset="1" style="stop-color:#FF78AF"/>
		</linearGradient>
		<path class="st65" d="M58.7,118.8c0,0-1.8-2-2.5-0.7c-0.6,1.2,0.7,5.8,3.7,5.5L58.7,118.8z"/>
		
			<linearGradient id="SVGID_37_" gradientUnits="userSpaceOnUse" x1="70.3595" y1="197.4104" x2="74.1884" y2="197.4104" gradientTransform="matrix(1 0 0 -1 0 318)">
			<stop  offset="0" style="stop-color:#E85B7D"/>
			<stop  offset="1" style="stop-color:#FF78AF"/>
		</linearGradient>
		<path class="st66" d="M71.6,118.8c0,0,1.8-2,2.5-0.7c0.6,1.2-0.7,5.8-3.7,5.5L71.6,118.8z"/>
		
			<linearGradient id="SVGID_38_" gradientUnits="userSpaceOnUse" x1="-20.6298" y1="55.7402" x2="-33.4876" y2="72.1842" gradientTransform="matrix(0.9981 6.170000e-02 6.170000e-02 -0.9981 91.1887 189.6639)">
			<stop  offset="0" style="stop-color:#E85B7D"/>
			<stop  offset="1" style="stop-color:#FF78AF"/>
		</linearGradient>
		<path class="st67" d="M72.2,118.7C72.2,118.7,72.2,118.7,72.2,118.7c0,0.3-1,8.1-1.5,9.5c-0.4,1.2-2.3,3.1-4,3.8
			c-0.4,0.2-0.8,0.2-1.2,0.2c-1.5-0.1-2.8-1-3.9-2.1c-0.6-0.6-1.1-1.3-1.4-1.9c-0.9-1.7-1.7-10.3-1.7-10.3s1.2-1.3,1.6-4.3
			c0-0.3,0.1-0.7,0.1-1.1c0,0,6.8-2.2,11,0.8c0,0,0,0,0,0.1C71.3,113.7,71.1,116.3,72.2,118.7z"/>
		<path class="st63" d="M72,118.3c0,0.3-0.5,8.1-0.9,9.6c-0.3,1.2-2.1,3.2-3.8,4C70.6,129.7,71.9,118.6,72,118.3z"/>
		<path class="st63" d="M70.8,112.9C70.8,112.9,70.8,112.9,70.8,112.9c-4.6-1-9.4,0.4-11.1,1c0-0.4,0-0.7,0-1.1
			C59.7,112.7,66.3,110.2,70.8,112.9z"/>
		
			<linearGradient id="SVGID_39_" gradientUnits="userSpaceOnUse" x1="53.3617" y1="128.7629" x2="49.4399" y2="182.2239" gradientTransform="matrix(1 0 0 -1 0 318)">
			<stop  offset="0" style="stop-color:#F4BA38"/>
			<stop  offset="1" style="stop-color:#FFD349"/>
		</linearGradient>
		<path class="st68" d="M66.3,192c-2.5,0-4.7-0.1-6.5-0.4c-4.3-0.6-6.8-1.7-6.8-1.7l-1.3-33.5c0,0-2.1,6.7-2.7,9.6
			c-0.1,0.6-0.2,1-0.2,1.2c0.1,1.1,1.7,8.4,1.7,8.4l-7.6,2.9c0,0-3.8-7.5-3.8-10s5.5-26.5,6.7-28.3s15.6-5.6,15.6-5.6L66.3,192z"/>
		
			<linearGradient id="SVGID_40_" gradientUnits="userSpaceOnUse" x1="70.5972" y1="121.4543" x2="89.8868" y2="203.73" gradientTransform="matrix(1 0 0 -1 0 318)">
			<stop  offset="0" style="stop-color:#F4BA38"/>
			<stop  offset="1" style="stop-color:#FFD349"/>
		</linearGradient>
		<path class="st69" d="M83.4,168.1c0.1-0.8,0.1-1.5,0-1.8c-0.3-1.3-2.1-6.9-2.1-6.9c0.3,3.1,2.1,33.3,2.1,33.3
			c-1.7,0.1-3.8,0-5.6-0.1c-3.2-0.2-5.9-0.5-5.9-0.5l-1.4-57.5c7.2,0.7,14.8,3.9,15.6,4.5c0.8,0.5,6.3,26.4,6.3,27.4
			s-2.2,8.7-2.2,8.7l-7.4-2.1l-0.1,0c0,0,0-0.1,0-0.2c0.1-0.7,0.5-2.8,0.7-4.5l0,0c0,0,0,0,0,0C83.3,168.2,83.4,168.1,83.4,168.1
			C83.4,168.1,83.4,168.1,83.4,168.1z"/>
		
			<linearGradient id="SVGID_41_" gradientUnits="userSpaceOnUse" x1="43.3078" y1="121.9836" x2="74.801" y2="187.7255" gradientTransform="matrix(1 0 0 -1 0 318)">
			<stop  offset="0" style="stop-color:#FF911E"/>
			<stop  offset="1" style="stop-color:#FE931E;stop-opacity:0"/>
		</linearGradient>
		<path class="st70" d="M59.8,191.6c-4.3-0.6-6.8-1.7-6.8-1.7l-1.3-33.5c0,0-2.1,6.7-2.7,9.6l-1.8,5.1l5.5-24.7
			c0,0,2.5,8.7,1.6,20.5C53.6,176.1,59.7,183.1,59.8,191.6z"/>
		<path class="st71" d="M82.6,172.9c0,0,0-0.1,0-0.2C82.7,172.8,82.7,172.9,82.6,172.9L82.6,172.9z"/>
		<path class="st71" d="M83.4,168.1C83.4,168.1,83.4,168.2,83.4,168.1C83.4,168.2,83.4,168.1,83.4,168.1z"/>
		
			<linearGradient id="SVGID_42_" gradientUnits="userSpaceOnUse" x1="91.6556" y1="124.9295" x2="46.5154" y2="207.9875" gradientTransform="matrix(1 0 0 -1 0 318)">
			<stop  offset="0" style="stop-color:#FF911E"/>
			<stop  offset="1" style="stop-color:#FE931E;stop-opacity:0"/>
		</linearGradient>
		<path class="st72" d="M81.3,159.3c0.3,3.1,2.1,33.3,2.1,33.3c-1.7,0.1-3.8,0-5.6-0.1c3.3-6.5,2.2-19.8,1.2-26.2
			c-1.2-7.2,0-21.5,0-21.5s4.8,18.2,4.8,18.9c0,0.6-0.4,3.8-0.4,4.5c0.1-0.8,0.1-1.5,0-1.8C83.1,164.9,81.3,159.3,81.3,159.3z"/>
		
			<linearGradient id="SVGID_43_" gradientUnits="userSpaceOnUse" x1="45.0511" y1="144.73" x2="55.5776" y2="120.2714" gradientTransform="matrix(1 0 0 -1 0 318)">
			<stop  offset="0" style="stop-color:#E85B7D"/>
			<stop  offset="1" style="stop-color:#FF78AF"/>
		</linearGradient>
		<path class="st73" d="M57.3,195.5c-0.2,0.5-0.5,1-0.8,1.4c-1,1.2-2.6,1.9-2.6,1.9c-3.7-5.8-11-20.3-11-20.3l5.2-2l2.4-0.9
			c0.3,0.7,1.5,5.2,3,10C55,190.4,57.3,195.5,57.3,195.5z"/>
		<path class="st63" d="M57.3,195.5c-0.2,0.5-0.5,1-0.8,1.4c-1-4.7-3.4-6.1-4.7-11.5c-1-4-2.7-7.2-3.7-8.9l2.4-0.9
			c0.3,0.7,1.5,5.2,3,10C55,190.4,57.3,195.5,57.3,195.5z"/>
		<path class="st74" d="M51.7,177.9c0,0-8,2.9-8.4,3.1c-0.4,0.3-2.6-4.2-2.6-4.2l10.4-3.7C51,173.2,52.2,177.1,51.7,177.9z"/>
		<path class="st60" d="M76.3,135.2c0,0-1.6,38.7,9.1,48.4l-1.6,3.6c0,0-12.5-12.5-10.5-52.2C73.3,134.9,74.3,134.2,76.3,135.2z"/>
		
			<linearGradient id="SVGID_44_" gradientUnits="userSpaceOnUse" x1="88.0497" y1="143.2139" x2="81.8576" y2="110.0863" gradientTransform="matrix(1 0 0 -1 0 318)">
			<stop  offset="0" style="stop-color:#E85B7D"/>
			<stop  offset="1" style="stop-color:#FF78AF"/>
		</linearGradient>
		<path class="st75" d="M88.4,197.1c0.3,0.8,0.5,5.2-0.7,5.8s-3.9,0.3-3.9,0.3s4.5,4.9,3.8,5c-0.7,0.1-4.7-3.4-5-4.2
			c-0.3-0.8-2-7.4-1.8-10.8c0.1-3.4,1.8-20.5,1.8-20.5l4.6,1.5l2.9,0.9c-0.8,2.6-5.4,18.4-5.4,18.4c0,0,0,0,0,0.1
			c0.9,2.1,2.3,7.3,2.3,7.3S88.1,196.3,88.4,197.1z"/>
		<path class="st63" d="M84.7,193.4C84.7,193.4,84.7,193.5,84.7,193.4l-1.3,1.6c1.6-4.1,0.8-8.4,2.6-13.4c1.2-3.1,1.3-5.9,1.2-7.5
			l2.9,0.9C89.2,177.7,84.7,193.4,84.7,193.4z"/>
		<path class="st74" d="M81.6,171.8l10.4,2.9c0,0-1.6,3.9-1.8,4.1c-0.3,0.1-8.3-2-8.4-2.2C81.6,176.2,81.6,171.8,81.6,171.8z"/>
	</g>
	<g>
		<path class="st54" d="M121.3,295.6c1.6,1.1,13.7-5.3,14.7-6c0.8-0.6,0.2-5.4,0-6.4c0-0.1,0-0.2,0-0.2l0-3l-6.9-1.3l0.2,4.4l0,0.3
			c0,0,0.3,1.2-0.4,2.1C128.3,286.5,119.7,294.5,121.3,295.6z"/>
		<path class="st76" d="M129.1,278.7l0.2,4.4c1.3,0.5,3.8,1.2,6.7,0.1c0-0.1,0-0.2,0-0.2l0-3L129.1,278.7z"/>
		<path class="st54" d="M149.7,289.2c0.7,0.8,3.1,0.5,4.9,0.7c1.9,0.1,14.7,1.9,15.4,0c0.6-1.8-12.9-6.4-13.8-6.7c0,0-0.1,0-0.1,0
			l0.1-3.3l-6.6-1.9l0.1,5.4c0,0,0,0,0,0.1C149.7,284,149.1,288.5,149.7,289.2z"/>
		<path class="st76" d="M149.7,283.3C149.7,283.3,149.7,283.4,149.7,283.3c1.5,0.4,4.2,0.7,6.5-0.1c0,0-0.1,0-0.1,0l0.1-3.3
			l-6.6-1.9L149.7,283.3z"/>
		
			<linearGradient id="SVGID_45_" gradientUnits="userSpaceOnUse" x1="124.79" y1="83.4827" x2="159.1192" y2="83.4827" gradientTransform="matrix(1 0 0 -1 0 318)">
			<stop  offset="0" style="stop-color:#7C45CC"/>
			<stop  offset="1" style="stop-color:#FB4567"/>
		</linearGradient>
		<path class="st77" d="M124.8,223l1.6,15.4c0,0,1.1,24.2,2.9,42.3c0,0,0.8,0.4,1.9,0.6c1.3,0.3,3.2,0.4,4.8-0.6
			c0,0,2.3-42.2,2.7-46.2c0.3-3.3,0.9-19.5,1.1-25c0-1.2,0.1-1.9,0.1-1.9s6.7,27.1,7.2,29.2c0.5,2.1,1.7,32.4,2.8,43.8
			c0,0,0.5,0.2,1.4,0.3c1.2,0.2,3,0.3,4.9-0.3c0,0,2.7-44.8,2.9-47.6s-2.4-18.7-2.4-18.7l-10.8-26.8l-0.6,0.1l-15.7,1.3L124.8,223z"
			/>
		
			<linearGradient id="SVGID_46_" gradientUnits="userSpaceOnUse" x1="4202.0513" y1="121.1769" x2="4185.7715" y2="-14.0975" gradientTransform="matrix(-1 0 0 -1 4334.8564 318)">
			<stop  offset="0" style="stop-color:#6D5BB8"/>
			<stop  offset="1" style="stop-color:#604AB7;stop-opacity:0"/>
		</linearGradient>
		<path class="st78" d="M124.8,223l1.6,15.4c0,0,1.1,24.2,2.9,42.3c0,0,0.8,0.4,1.9,0.6l0,0c-0.9-2.5-0.5-14.2-0.1-21.4
			c0.4-7.2,0.1-9.1-0.9-19.5c-1.1-10.4,4-20.3,5.1-32.3s8-12.1,8-12.1l2-8.4l-15.7,1.3L124.8,223z"/>
		
			<linearGradient id="SVGID_47_" gradientUnits="userSpaceOnUse" x1="4192.1045" y1="122.3738" x2="4179.1567" y2="14.7828" gradientTransform="matrix(-1 0 0 -1 4334.8564 318)">
			<stop  offset="0" style="stop-color:#6D5BB8"/>
			<stop  offset="1" style="stop-color:#604AB7;stop-opacity:0"/>
		</linearGradient>
		<path class="st79" d="M139.8,201.6v7.9c0-1.2,0.1-1.9,0.1-1.9s6.7,27.1,7.2,29.2c0.5,2.1,1.7,32.4,2.8,43.8c0,0,0.5,0.2,1.4,0.3
			c0.4-4.3-0.2-12.3-0.6-21.9c-0.5-12.1,0.9-19.8,1.5-23.1c0.5-3.3-3.6-7.2-6.1-15.5C143.4,212.3,139.8,201.6,139.8,201.6z"/>
		<path class="st50" d="M129.6,141.2l1.5,24.6l1.5,24.9c8.3,2.7,11.9,0,11.9,0l0.3-11.7l1-33.8l-5.5-5.6c0,0-3.6,7.6-4.8,7.3
			C134.4,146.7,129.6,141.2,129.6,141.2z"/>
		<path class="st53" d="M131.1,165.8l1.5,24.9c8.3,2.7,11.9,0,11.9,0l0.3-11.7c-0.6-0.3-1.3-0.5-2.2-0.5c-8-0.1-10.8-22.3-10.8-22.3
			L131.1,165.8z"/>
		<path class="st41" d="M168.8,163.8"/>
		<path class="st80" d="M128.4,110.4c0,0-0.3-2.5-3.3-3.2c-3.1-0.7-8.5,3.6-7.6,10.9s6.7,4.4,6.7,4.4L128.4,110.4z"/>
		<path class="st64" d="M142.1,125.2l1,10.4c0,0,1.9-17.9,0.9-21.1c-1.1-3.3-3.7-5.3-6-2.5c0,0-0.5-3.2-5.2-3.5
			c-4.7-0.3-9.7,4.3-10,13.1c-0.3,8.8,6.5,13,6.5,13L142.1,125.2z"/>
		
			<linearGradient id="SVGID_48_" gradientUnits="userSpaceOnUse" x1="4162.9844" y1="147.6699" x2="4146.5723" y2="180.8946" gradientTransform="matrix(-1 0 0 -1 4334.8564 318)">
			<stop  offset="0" style="stop-color:#E85B7D"/>
			<stop  offset="1" style="stop-color:#FF78AF"/>
		</linearGradient>
		<path class="st81" d="M165.4,164.8l4,2.5l3,1.9c0,0,7.7-23.6,8.7-24.1c1.1-0.5,8.4-0.9,9.2-1.3c0.2-0.1,0.7-0.4,1.3-0.7l0,0
			c1.8-1,4.7-2.8,4.3-2.9c-0.5-0.1-2.8,1.3-4.8,1.5c-2,0.1-9.5-1.2-11.2-0.4c-1.7,0.8-3.7,4.8-6.1,9.2
			C171.4,154.8,165.4,164.8,165.4,164.8z"/>
		<path class="st63" d="M169.4,167.4l3,1.9c0,0,7.7-23.6,8.7-24.1c1.1-0.5,8.4-0.9,9.2-1.3c0.2-0.1,0.7-0.4,1.3-0.7
			c-0.2,0-5.4,0.7-8.4,0.7c-3.1,0-4.1,0.5-5.1,4.4c-0.9,3.9-6,17.1-8.4,18.8C169.6,167.1,169.5,167.2,169.4,167.4z"/>
		
			<linearGradient id="SVGID_49_" gradientUnits="userSpaceOnUse" x1="4170.2363" y1="150.29" x2="4173.9062" y2="150.29" gradientTransform="matrix(-1 0 0 -1 4334.8564 318)">
			<stop  offset="0" style="stop-color:#891531"/>
			<stop  offset="1" style="stop-color:#891531;stop-opacity:0"/>
		</linearGradient>
		<path class="st82" d="M160.9,170.6l3.7-4.8l-1.7,2.1c0,0-0.4-1.2-1-3.1L160.9,170.6z"/>
		
			<linearGradient id="SVGID_50_" gradientUnits="userSpaceOnUse" x1="4207.1523" y1="169.7024" x2="4198.5229" y2="193.4547" gradientTransform="matrix(-1 0 0 -1 4334.8564 318)">
			<stop  offset="0" style="stop-color:#E85B7D"/>
			<stop  offset="1" style="stop-color:#FF78AF"/>
		</linearGradient>
		<path class="st83" d="M127.5,127.8c0.5,0.4,1.3-0.5,1.3-0.5c0.3,3.2,1.4,9.4,1.1,12.5c-0.1,1.2-1.7,1.6-1.7,1.6s5.5,7.1,7.5,7
			s5.6-8.7,5.6-8.7s-1.6,0.1-3-0.3c-0.4-0.1-0.7-0.4-0.9-0.8c-0.5-0.9-0.8-2.2-0.8-2.6c0-0.1,0-0.1,0-0.1s0.1,0.1,0.3,0.2
			c0,0,0,0,0,0c0.2,0.1,0.4,0.2,0.8,0.2h0c0.2,0,0.5,0,0.8-0.1l0,0c0.2-0.1,0.5-0.2,0.9-0.3c0.1,0,0.1-0.1,0.2-0.1
			c2-1.5,2.6-13.4,2.6-13.4c-0.3-0.2-0.6-0.4-0.9-0.7c-3.2-2.5-4.7-6.3-4.7-6.3c-0.2,0.8-0.5,1.6-0.9,2.3c-2.2,4.7-6.2,7.7-6.2,7.7
			s-1.6-4.3-2.8-3.1C125.6,123.5,126.9,127.3,127.5,127.8z"/>
		<path class="st64" d="M129.6,125.3c0,0,0.4,8.1,2,11.5c0,0-0.8-10.8,0.7-15.8L129.6,125.3z"/>
		
			<linearGradient id="SVGID_51_" gradientUnits="userSpaceOnUse" x1="149.2131" y1="100.427" x2="157.2641" y2="174.1237" gradientTransform="matrix(1 0 0 -1 0 318)">
			<stop  offset="0" style="stop-color:#F4BA38"/>
			<stop  offset="1" style="stop-color:#FFD349"/>
		</linearGradient>
		<path class="st84" d="M142.1,172.1c-0.8,14.9,0.9,40,2.7,48.3c1.7,8.3,17.1,4,17.1,4s-2.5-12.9-4.8-21.6c-1.8-6.9-4.2-27-5.1-34.9
			c-0.2-2-0.4-3.3-0.4-3.3s5.7,17.8,10.3,18.1c0.6,0.1,1.3-0.2,2-0.7c4.2-2.9,9.1-14.1,9.1-14.1L166,164l-1.4,1.7l0,0l-1.7,2.1
			c0,0-0.4-1.2-1-3.1c-2-6.1-6.5-19.6-9.2-22.7c-3.5-4-13.4-2.5-13.4-2.5S142.8,159,142.1,172.1z"/>
		
			<linearGradient id="SVGID_52_" gradientUnits="userSpaceOnUse" x1="4186.8179" y1="134.9251" x2="4169.2051" y2="162.946" gradientTransform="matrix(-1 0 0 -1 4334.8564 318)">
			<stop  offset="0" style="stop-color:#FF911E"/>
			<stop  offset="1" style="stop-color:#FE931E;stop-opacity:0"/>
		</linearGradient>
		<path class="st85" d="M152,167.8c-0.2-2-0.4-3.3-0.4-3.3s5.7,17.8,10.3,18.1c0.6,0.1,1.3-0.2,2-0.7c-1.2-0.5-2.5-1.5-3.2-3.5
			c-1.9-4.9-2.1-9.7-5.3-12.7s-3.9-8-4.7-11.2C150.7,154.7,150.7,160.9,152,167.8z"/>
		
			<linearGradient id="SVGID_53_" gradientUnits="userSpaceOnUse" x1="125.4399" y1="100.1668" x2="110.5767" y2="181.9144" gradientTransform="matrix(1 0 0 -1 0 318)">
			<stop  offset="0" style="stop-color:#F4BA38"/>
			<stop  offset="1" style="stop-color:#FFD349"/>
		</linearGradient>
		<path class="st86" d="M99.2,173.2c0.4,3.6,5.3,7.1,5.3,7.1l5.3-5.9l0.5-0.5l-2-1.9l13.2-11.3c0,0,0,0.2,0,0.5
			c0.1,3,0.8,19,1.3,27.7c0.5,9.6-2,36.6-2,36.6s14.1,2.3,15.9-6.3c1.7-8.5-1.7-44.8-1.9-48.7c-0.1-3.9-5.7-29.6-5.7-29.6
			s-7.4,0.5-10.5,3C115.6,146.4,98.8,169.6,99.2,173.2z"/>
		
			<linearGradient id="SVGID_54_" gradientUnits="userSpaceOnUse" x1="4206.2646" y1="142.8379" x2="4236.4873" y2="172.4598" gradientTransform="matrix(-1 0 0 -1 4334.8564 318)">
			<stop  offset="0" style="stop-color:#FF911E"/>
			<stop  offset="1" style="stop-color:#FE931E;stop-opacity:0"/>
		</linearGradient>
		<path class="st87" d="M105.2,170.9l4.6,3.6l0.5-0.5l-2-1.9l13.2-11.3c0,0,0,0.2,0,0.5l1.8-9.8c0,0-3.1,3.5-7.1,9.9
			C112.2,167.6,105.2,170.9,105.2,170.9z"/>
		
			<linearGradient id="SVGID_55_" gradientUnits="userSpaceOnUse" x1="4234.6572" y1="147.8288" x2="4204.0347" y2="125.8124" gradientTransform="matrix(-1 0 0 -1 4334.8564 318)">
			<stop  offset="0" style="stop-color:#E85B7D"/>
			<stop  offset="1" style="stop-color:#FF78AF"/>
		</linearGradient>
		<path class="st88" d="M104.5,180.3c6.3,3.7,19.6,10.7,19.6,10.7s0.4,0.7,1.9,1.5s6.1,0,6.7,0.3s1.6,2.7,1.9,2.5
			c0.3-0.1-0.4-2.8-0.5-3.2s-3.5-1.6-3.5-1.6s3.5,0.7,3.9,1.2c0.4,0.5,2.4,3.3,2.5,3.2c0.1-0.1-1.2-3.9-1.7-4.4
			c-0.5-0.5-3.7-1.8-3.7-1.8c1.2,0.1,3,0.6,3.8,1c0.8,0.4,2,2.4,2.4,2.5c0.4,0.1-0.1-1.7-0.4-2.3c-0.3-0.5-3.9-2.7-4.9-3.1
			c-0.7-0.3-2.5,0-4.1,0.1c-0.9,0.1-1.7,0.1-2.3-0.1c-1.6-0.5-15.8-12.8-15.8-12.8l-1.5,1.6L104.5,180.3z"/>
		<path class="st63" d="M108.8,175.6c2.3,1.7,11.3,8.5,13.8,10.3c2.9,2,5.7,1.1,5.7,1.1c-0.9,0.1-1.7,0.1-2.3-0.1
			c-1.6-0.5-15.8-12.8-15.8-12.8L108.8,175.6z"/>
		<path class="st63" d="M135.8,117.7c1.5,1.7,4.2,3.2,5.5,4c-3.2-2.5-4.7-6.3-4.7-6.3C136.4,116.1,136.1,116.9,135.8,117.7z"/>
		
			<linearGradient id="SVGID_56_" gradientUnits="userSpaceOnUse" x1="4195.8687" y1="181.7492" x2="4195.6665" y2="182.3061" gradientTransform="matrix(-1 0 0 -1 4334.8564 318)">
			<stop  offset="0" style="stop-color:#E85B7D"/>
			<stop  offset="1" style="stop-color:#FF78AF"/>
		</linearGradient>
		<path class="st89" d="M138.6,136.1c0.2-0.1,0.5-0.2,0.9-0.3c0.1,0,0.1-0.1,0.2-0.1c-0.1-0.1-0.2-0.1-0.2-0.1
			S139.1,135.9,138.6,136.1z"/>
		
			<linearGradient id="SVGID_57_" gradientUnits="userSpaceOnUse" x1="4197.4814" y1="181.841" x2="4197.4482" y2="181.9329" gradientTransform="matrix(-1 0 0 -1 4334.8564 318)">
			<stop  offset="0" style="stop-color:#E85B7D"/>
			<stop  offset="1" style="stop-color:#FF78AF"/>
		</linearGradient>
		<path class="st90" d="M137,136c0.2,0.1,0.4,0.2,0.8,0.2C137.6,136.1,137.3,136.1,137,136z"/>
		<path class="st63" d="M133.5,132.9c0,0,0.1,5,4,5.6c-0.5-0.9-0.8-2.2-0.8-2.6C135.8,135.5,134.8,134.6,133.5,132.9z"/>
	</g>
	<g>
		<linearGradient id="SVGID_58_" gradientUnits="userSpaceOnUse" x1="356.6937" y1="72.6111" x2="410.32" y2="72.6111">
			<stop  offset="0" style="stop-color:#77C2EC;stop-opacity:0.94"/>
			<stop  offset="1" style="stop-color:#5969B1"/>
		</linearGradient>
		<path class="st91" d="M406.3,46.7h-43.5c-2.2,0-4,1.8-4,4v31.1c0,1.5,0.9,2.9,2.1,3.6L356.8,97c-0.4,1.1,0.9,1.9,1.8,1.2
			l14.8-12.3h33c2.2,0,4-1.8,4-4V50.8C410.3,48.5,408.5,46.7,406.3,46.7z"/>
		<g>
			<path class="st92" d="M397,66.3c0,3.8-1.7,7.2-4.4,9.5c-2.2,1.8-5,2.9-8,3c-3,0-5.8-1.1-8-2.9c-2.8-2.3-4.5-5.7-4.5-9.6
				c0-6.9,5.6-12.5,12.5-12.5C391.4,53.9,397,59.4,397,66.3z"/>
			<path class="st24" d="M392.6,75.8c-2.2,1.8-5,2.9-8,3c-3,0-5.8-1.1-8-2.9c0.2-2.3,0.9-4.5,1.8-6.2c0.6-1.2,2-1.6,3.2-1.1
				c0.9,0.4,1.9,0.7,3,0.7c1.1,0,2.1-0.2,3-0.7c1.2-0.6,2.6-0.1,3.2,1C391.7,71.4,392.3,73.5,392.6,75.8z"/>
			<path class="st24" d="M389.7,62.3c0,2.9-2.3,5.2-5.2,5.2c-2.9,0-5.2-2.3-5.2-5.2c0-2.9,2.3-5.2,5.2-5.2
				C387.4,57.1,389.7,59.5,389.7,62.3z"/>
		</g>
	</g>
	<g>
		<linearGradient id="SVGID_59_" gradientUnits="userSpaceOnUse" x1="9" y1="73.5999" x2="60.6" y2="73.5999">
			<stop  offset="0" style="stop-color:#77C2EC;stop-opacity:0.94"/>
			<stop  offset="1" style="stop-color:#5969B1"/>
		</linearGradient>
		<path class="st93" d="M60.6,81.9V50.8c0-2.2-1.8-4-4-4H13c-2.2,0-4,1.8-4,4v31.1c0,2.2,1.8,4,4,4h31.8l13.4,14.2
			c0.5,0.6,1.4,0.1,1.3-0.7L56.7,86C58.9,85.9,60.6,84.1,60.6,81.9z"/>
		<g>
			<ellipse class="st92" cx="34.9" cy="66.5" rx="12.3" ry="12.3"/>
			<path class="st24" d="M37.1,61.5c0,0,1.1-3.4,2-3.5c0.9-0.1,4.4,2.2,3.8,5.9c-0.6,3.7-5.8,9.2-9.8,9.5s-6.7-2.2-6.3-3
				c0.4-0.8,2-3,3.5-2.2c1.5,0.7,2.7,2.3,4.4,0.9c1.7-1.3,4.5-3.7,4.7-4.9C39.5,62.9,37.1,62.8,37.1,61.5z"/>
		</g>
	</g>
	<g>
		<linearGradient id="SVGID_60_" gradientUnits="userSpaceOnUse" x1="84.45" y1="68.3855" x2="136.05" y2="68.3855">
			<stop  offset="0" style="stop-color:#77C2EC;stop-opacity:0.94"/>
			<stop  offset="1" style="stop-color:#5969B1"/>
		</linearGradient>
		<path class="st94" d="M132,40.1H88.5c-2.2,0-4,1.8-4,4v31.1c0,2.2,1.8,4,4,4h20.8l9.6,17.1c0.4,0.7,1.4,0.4,1.3-0.4l-1.1-16.7H132
			c2.2,0,4-1.8,4-4V44.1C136.1,41.9,134.2,40.1,132,40.1z"/>
		<path class="st24" d="M120.5,54.8V66c0,0.7-0.6,1.3-1.3,1.3h-18c-0.7,0-1.3-0.6-1.3-1.3V54.8c0-0.1,0-0.2,0-0.2l9.2,5.2
			c0.7,0.4,1.5,0.4,2.2,0l9.2-5.2C120.5,54.6,120.5,54.7,120.5,54.8z"/>
		<path class="st24" d="M120.5,52.8l-9.2,5.2c-0.7,0.4-1.5,0.4-2.2,0l-9.2-5.2c0,0,0,0,0-0.1c0.1-0.3,0.2-0.5,0.4-0.7
			c0.2-0.2,0.4-0.3,0.7-0.3c0,0,0.1,0,0.1,0h18C119.9,51.8,120.4,52.3,120.5,52.8z"/>
		<path class="st95" d="M96.7,52C96.7,52,96.7,52,96.7,52L96.7,52C96.7,52,96.7,52,96.7,52z"/>
	</g>
</g>
</svg>
